<?xml version="1.0" standalone="no"?>
<!DOCTYPE svg PUBLIC "-//W3C//DTD SVG 1.1//EN" "http://www.w3.org/Graphics/SVG/1.1/DTD/svg11.dtd" >
<svg xmlns="http://www.w3.org/2000/svg">
<metadata>Generated by IcoMoon</metadata>
<defs>
<font id="icomoon" horiz-adv-x="1024">
<font-face units-per-em="1024" ascent="960" descent="-64" />
<missing-glyph horiz-adv-x="1024" />
<glyph unicode="&#x20;" horiz-adv-x="512" d="" />
<glyph unicode="&#xe900;" glyph-name="access-not-granted" d="M0.6 831.625c0-23.995 24.595-41.392 37.793-54.589 16.197-16.197 30.594-31.194 47.391-47.391 21.596-21.596 274.146-271.747 280.745-281.945-7.199-10.798-34.193-35.393-45.591-46.791l-280.745-280.145c-41.392-41.992-58.189-51.59-14.997-94.781l81.584-80.384c34.193-24.595 52.19 4.199 77.385 29.394 32.394 32.394 317.338 319.738 328.136 326.936 9.598-6.599 310.739-309.54 349.732-348.532 38.393-38.992 59.388-4.799 103.78 38.992l48.591 49.79c24.595 34.193-4.199 52.19-29.394 77.385l-233.954 233.954c-14.397 14.397-86.983 85.783-92.982 94.182 6.599 10.198 257.35 258.55 278.946 280.145 8.398 8.398 75.585 73.786 80.984 82.784 19.196 32.994-16.797 56.989-50.39 90.582-11.398 11.398-20.996 20.996-32.394 32.394-5.999 5.399-10.198 10.798-16.197 15.597-34.193 26.995-54.589-4.199-77.385-27.595-16.197-16.197-31.194-30.594-47.391-46.791-21.596-21.596-271.747-274.146-281.945-281.345-11.398 7.199-35.393 34.793-46.791 45.591l-280.745 280.745c-40.192 40.192-50.99 58.189-93.582 15.597l-80.384-80.984c-4.199-4.799-10.198-14.997-10.198-22.796z" />
<glyph unicode="&#xe901;" glyph-name="account-group" d="M919.62 194.55c0-25.195-6.599-54.589-15.597-72.586-4.799-10.798-9.598-19.196-15.597-28.794-53.39-80.384-166.767-104.38-249.551-46.191-18.596 12.598-37.193 31.194-49.19 50.99-50.99 80.984-32.994 179.365 40.192 236.954 51.59 40.792 121.776 49.79 181.165 23.395 31.194-13.797 55.789-33.593 74.985-60.588 19.196-28.194 33.593-68.387 33.593-103.18zM518.299 97.968c-62.988 0-112.778 5.399-162.568 19.796-40.192 11.998-92.982 41.992-92.982 91.182 0 95.981 17.397 164.368 68.387 240.553 17.397 26.995 43.791 53.39 69.586 71.986 53.989 38.393 101.98 52.19 165.568 23.995 49.19-22.196 99.581-68.987 124.176-115.777-34.793-0.6-96.581-39.592-120.576-63.588l-37.793-50.39c-14.397-23.395-32.394-65.987-31.794-102.58 0-23.995-2.999-29.994 2.4-60.588 4.799-26.395 14.997-48.591 15.597-54.589zM657.472 565.277c12.598 8.398 25.195 14.997 40.792 20.996 39.592 15.597 65.387 14.997 104.38-1.2 42.592-16.797 82.184-57.589 107.979-94.781 17.397-25.795 32.394-61.188 41.992-93.582 11.398-38.992 14.397-71.986 14.397-122.376l-1.8 2.4c-11.398 22.796-8.998 27.595-29.994 57.589-37.193 53.39-111.578 99.581-176.965 99.581-54.589 103.18-90.582 115.777-100.78 131.374zM203.36 225.144c0-7.798 1.8-34.193 3.599-38.992-25.795 5.999-47.391 5.999-77.985 17.996-24.595 8.998-43.791 19.196-58.189 38.393-26.995 35.393-9.598 119.977 2.4 161.368 7.199 23.395 17.996 47.991 28.794 67.787 5.999 10.798 12.598 20.396 19.196 29.394 32.994 43.791 88.783 96.581 147.571 96.581 32.394 0 79.185-10.798 91.782-28.194-7.798-11.398-55.189-33.593-109.179-140.972-28.194-56.989-47.991-137.973-47.991-203.36zM503.902 626.465c-39.592 0-64.787 14.997-86.983 33.593-20.396 16.797-39.592 53.39-39.592 83.384 0 41.992 4.199 68.987 35.993 100.78 49.79 49.79 129.575 49.19 181.165-2.4 11.998-11.398 17.397-20.396 25.195-36.593 36.593-76.185-19.196-178.765-115.777-178.765zM665.87 853.821c6.599 1.8 57.589 53.989 130.774 19.796s88.183-137.373 31.194-187.763c-10.198-8.398-20.396-16.797-32.994-22.196-7.199-2.999-12.598-5.399-21.596-7.199-55.189-11.398-80.384 13.797-92.982 17.397 0.6 7.199 2.4 10.198 4.799 17.397 1.8 5.999 2.999 11.398 4.799 17.996 10.198 46.191 4.199 79.784-13.797 121.776-4.199 8.998-8.398 10.798-10.198 22.796zM317.938 759.639c0-33.593 0-59.388 16.197-89.982-31.794-21.596-70.186-24.595-106.179-8.398-20.396 8.998-35.393 22.196-47.391 38.992-3.599 5.399-7.798 10.798-10.798 17.996-21.596 43.791-10.198 97.181 20.396 127.775 35.393 35.393 85.183 47.391 133.174 27.595 11.398-4.799 17.996-11.398 26.995-17.397-15.597-23.995-32.394-57.589-32.394-96.581zM102.58 769.837c0-28.194 8.998-56.989 18.596-75.585 19.796-38.992 34.793-39.592 34.793-63.588 0-27.595-35.393-32.394-68.987-82.184-32.994-49.19-52.79-83.384-70.186-145.172-15.597-55.189-31.194-137.973 5.999-190.163 7.199-10.198 11.998-15.597 20.996-24.595 36.593-36.593 107.979-55.789 165.568-61.188 43.791-4.199 7.798 1.8 55.789-34.193 50.99-38.393 148.171-58.189 216.558-58.189h44.991c39.592 0 25.795 10.198 50.39-14.997 5.999-5.999 12.598-11.398 19.196-16.197 7.199-5.399 12.598-8.398 20.996-13.797 140.972-85.783 343.733-4.199 362.329 187.763 1.8 22.796 24.595 25.795 37.193 67.187 23.995 77.385-19.196 206.96-58.189 268.748-22.796 34.793-47.391 68.387-80.984 92.982-3.599 2.4-6.599 4.199-8.998 7.798-9.598 15.597 0 34.793 9.598 45.591 26.395 28.794 39.592 68.987 39.592 112.178 0 90.582-77.385 167.367-167.967 167.367-27.595 0-50.99-3.599-73.186-14.997-8.998-4.199-17.397-7.798-25.195-13.197l-22.196-18.596c-47.391 31.794-59.388 40.792-120.576 45.591-49.19 4.199-85.783-16.197-123.576-41.392-6.599 9.598-30.594 23.995-43.791 29.394-67.187 26.395-136.773 13.797-187.763-37.193-30.594-30.594-50.99-73.786-50.99-119.377zM716.86 165.755c-11.398 7.798-33.593 38.992-49.19 38.992-16.797 0-30.594-11.998-30.594-32.994 0-14.397 40.792-45.591 51.59-56.389 14.997-14.997 11.998-14.997 32.394-14.997 14.997 0 34.793 28.194 44.991 38.992 17.397 20.396 40.192 41.992 59.388 65.387 11.398 14.397 35.993 32.394 28.794 52.79-8.398 22.196-35.993 23.995-48.591 10.198l-37.793-44.391c-5.999-5.399-7.199-7.199-12.598-13.797-4.799-5.999-8.398-8.398-13.197-13.797l-25.195-29.994z" />
<glyph unicode="&#xe902;" glyph-name="ass-person" d="M829.638 840.623h-121.776v-61.788h121.776v-119.377h61.788v119.377h119.377v61.788h-119.377v119.377h-61.788v-119.377zM12.598-49.003v-14.997h61.788c0 272.947 307.74 419.918 518.899 273.547 16.197-11.398 42.592-31.794 54.589-47.391 9.598-11.998 10.798-9.598 28.194-34.193 11.398-15.597 22.796-32.394 30.594-52.19 20.396-49.19 31.194-79.185 31.194-139.773h61.788c0 46.791-7.798 86.383-20.996 126.575-61.188 184.764-259.749 299.941-457.711 256.15-29.994-6.599-46.791-12.598-72.586-23.395-32.994-13.797-62.988-32.394-89.982-54.589-31.794-25.795-46.191-41.392-70.786-74.385-41.392-55.189-74.985-138.573-74.985-215.358zM405.521 448.3c-36.593 0-78.585 16.797-103.18 41.992-55.789 56.389-62.388 132.574-17.397 197.361 25.195 36.593 74.385 61.188 122.376 61.188 61.788 0 111.578-38.393 134.974-86.983 36.593-74.985 0.6-167.367-74.385-199.761-15.597-6.599-41.392-13.797-62.388-13.797zM194.362 606.069c0-67.787 19.196-113.978 64.187-159.569 16.197-16.197 40.192-31.794 62.988-41.392 80.984-35.393 178.765-14.997 235.754 44.391l22.796 28.194c7.798 11.398 13.197 21.596 19.196 34.193 44.391 90.582 7.798 207.559-71.386 259.749-116.377 76.785-254.95 34.193-313.139-81.584-10.798-22.196-20.396-52.19-20.396-83.984z" />
<glyph unicode="&#xe903;" glyph-name="business-team" d="M767.85 144.159h-512.9c0 65.387-1.2 125.975 39.592 182.364 21.596 29.994 64.187 56.989 116.377 56.989 7.798 0 22.196-36.593 25.795-43.791l58.789-121.776c15.597-31.794 23.395-19.196 33.593 1.2 4.199 7.798 7.199 14.997 10.798 23.995 7.199 15.597 15.597 30.594 23.395 46.791l34.193 70.786c2.999 7.199 6.599 22.796 14.997 22.796 97.781 0 146.371-79.185 155.37-167.367 2.999-28.194 2.4-43.192 0-71.986zM452.312 363.716c33.593-16.197 85.183-17.397 118.177 0-2.4-11.398-22.196-49.19-28.194-61.188-4.799-10.198-8.398-19.796-13.797-29.994-4.799-8.998-12.598-22.796-14.997-31.794h-4.199c-0.6 10.798-42.592 90.582-53.39 113.378-1.8 4.199-2.4 6.599-3.599 9.598zM230.955 196.949c0-34.793-2.999-44.391 4.199-74.385 4.799-1.2 5.399-2.4 10.798-2.4h535.095c13.797 0 13.197 43.192 13.197 54.589 0 30.594-4.799 67.187-11.398 91.782-13.797 51.59-40.192 93.582-86.383 119.977-28.794 15.597-61.188 20.996-97.181 20.996-5.999 0-59.388-55.189-136.773-22.796-36.593 15.597-20.996 22.796-49.79 22.796-121.776 0-181.764-106.779-181.764-210.559zM162.568 493.291c16.797-1.8 13.197-4.799 41.992-4.799 12.598 0 15.597 3.599 26.395 4.799-4.199-17.397-29.994-59.388-32.994-72.586-0.6 0.6-0.6 1.8-0.6 1.2-1.2-2.999-1.8 2.4-1.8 2.999-0.6 1.2-1.2 2.999-1.8 4.199-1.8 3.599-2.999 5.999-4.799 8.998l-26.395 55.189zM-5.999 370.315c0-24.595 0-46.191 17.397-46.191h203.96c13.197 0 15.597 7.199 15.597 15.597 0 13.197-25.195 8.398-46.191 8.398h-164.368c-0.6 8.998-2.4 4.799-2.4 13.197 0 71.386 25.195 149.371 105.579 149.371 7.199 0 6.599-7.199 10.198-13.797 2.999-7.199 5.399-11.398 8.398-17.996l32.994-67.787c23.395-46.791 25.795-37.793 51.59 13.797 8.398 17.397 36.593 75.585 38.992 85.783 44.991 0 76.185-20.996 92.982-56.389 6.599-13.197 5.399-25.795 20.996-29.394 7.199 3.599 12.598 5.399 10.198 16.197-11.398 50.39-61.788 93.582-117.577 93.582-28.194 0-11.998-0.6-37.193-13.197-55.189-26.995-92.382 13.197-98.381 13.197-27.595 0-49.79-1.8-72.586-15.597-51.59-29.994-70.186-91.182-70.186-148.771zM792.445 493.291c16.197-1.8 12.598-4.799 41.392-4.799 12.598 0 15.597 3.599 26.395 4.799-2.4-10.798-30.594-62.988-32.994-72.586-5.399 5.999-20.996 41.392-26.395 52.79l-8.398 19.796zM634.076 435.702c0-7.199 7.199-8.998 13.197-10.798 10.198 6.599 12.598 18.596 18.596 29.994 17.397 35.393 45.591 55.789 91.182 55.789 2.4-10.198 46.791-95.381 55.189-116.377 17.397-42.592 40.192 26.395 51.59 49.19l31.194 67.187c93.582 0 109.779-81.584 109.779-162.568-35.393 0-187.763 2.999-210.559-1.8-0.6-4.199-7.798-22.196 13.197-22.196h203.96c9.598 0 13.197 3.599 15.597 11.398 8.998 37.793-3.599 115.178-29.994 149.971-32.994 43.192-96.581 60.588-119.977 43.192-28.194-20.996-70.186-21.596-98.981-1.2-12.598 8.398-4.199 7.199-27.595 7.199-62.988 0-116.377-59.988-116.377-98.981zM384.525 595.871c0 37.193 15.597 69.586 35.393 89.383 48.591 49.79 131.374 52.19 182.364 1.2 55.789-55.789 47.391-149.971-18.596-194.962-7.199-4.799-11.998-8.398-19.796-11.398-94.182-37.793-179.365 31.194-179.365 115.777zM359.93 598.271c0-41.392 16.797-81.584 44.391-109.179 57.589-56.989 154.77-58.789 211.759-2.4 55.189 53.989 62.988 134.974 19.196 197.961l-35.393 35.393c-103.78 71.986-239.953-3.599-239.953-121.776zM110.378 664.258c0 46.791 38.992 87.583 85.183 87.583 48.591 0 88.183-37.193 88.183-87.583 0-76.785-93.582-113.378-146.971-61.188-12.598 12.598-26.395 36.593-26.395 61.188zM86.383 666.057c0-33.593 15.597-60.588 32.994-78.585 8.998-8.998 18.596-16.797 30.594-22.196 116.377-52.19 209.959 93.582 125.376 178.165-72.586 72.586-188.963 13.197-188.963-77.385zM739.656 664.258c0 76.785 92.382 116.977 146.371 62.988 59.388-59.988 11.998-148.771-58.789-148.771-47.391 0-87.583 38.992-87.583 85.783zM715.66 666.057c0-60.588 48.591-111.578 111.578-111.578 58.789 0 109.779 47.991 109.779 113.978 0 76.785-86.983 131.374-156.569 97.181l-38.393-29.394c-15.597-19.796-26.395-41.392-26.395-70.186z" />
<glyph unicode="&#xe904;" glyph-name="certified-icon" d="M250.751 623.466c0 61.788 26.995 129.575 71.386 173.366 21.596 21.596 44.391 36.593 71.986 50.39 91.782 44.991 207.559 20.996 277.146-48.591 70.786-70.786 95.381-182.364 51.59-275.946-6.599-14.397-13.797-27.595-22.196-39.592-10.798-15.597-13.197-16.197-20.396-25.195-16.797-21.596-56.989-49.19-80.984-58.789-39.592-16.197-47.391-16.797-86.383-20.996-22.796-2.4-5.999-2.4-28.794 0-35.993 3.599-47.391 2.999-86.983 20.396-86.983 38.992-146.371 129.575-146.371 224.956zM135.574 35.581c8.998 2.4 155.97 74.385 164.968 76.785 0.6-5.999 3.599-16.197 5.399-21.596l46.191-154.77c3.599 4.799 10.798 22.796 13.197 28.794l97.181 222.557c3.599 7.199 7.199 10.198 0.6 12.598-11.998 4.199-83.984 3.599-164.368 50.39-18.596 10.198-34.793 22.796-51.59 34.193l-56.389-124.176c-7.798-17.996-52.19-113.378-55.189-124.776zM554.892 205.947c0.6-8.398 22.796-55.789 27.595-67.787l85.783-197.361c2.4-4.199 1.8-2.4 3.599-4.799 5.999 27.595 29.394 100.18 38.992 131.374 4.199 15.597 8.998 29.394 12.598 44.991l164.368-76.785-110.978 260.349c-23.395-12.598-34.793-28.194-96.581-58.189-24.595-11.398-90.582-31.794-125.376-31.794zM467.309 510.088l-98.381 98.981c3.599 11.998 28.794 28.194 38.393 42.592l59.388-57.589c8.398 2.4 13.197 10.198 18.596 16.197l125.376 125.975 42.592-41.992-185.964-184.164zM283.145 634.864c0-40.792 1.8-67.187 20.396-104.38 12.598-25.195 23.395-40.192 42.592-58.789 32.994-33.593 86.983-62.988 137.973-62.988 43.791 0 67.787 1.2 108.579 21.596 28.794 14.397 32.994 19.196 53.989 38.393 20.396 18.596 36.593 42.592 47.991 68.387 25.195 56.989 25.195 117.577 0 173.966-21.596 48.591-59.388 86.383-107.979 108.579-73.786 34.193-162.568 21.596-223.156-27.595-5.999-4.799-7.798-7.798-14.397-12.598-13.797-10.798-35.993-45.591-44.391-61.188-11.398-19.796-21.596-52.79-21.596-83.384zM449.912 921.607c-62.988 0-44.391 11.398-94.182 11.398-12.598 0-28.794-10.198-37.193-16.197-33.593-25.795-22.196-35.393-37.793-72.586-5.999-13.797-12.598-25.195-20.396-35.393-19.196-26.395-32.994-36.593-60.588-50.39-13.797-6.599-22.196-13.197-28.194-27.595-35.393-80.384 27.595-88.783 27.595-149.971 0-56.389-13.797-54.589-13.797-85.783 0-26.995 23.995-65.387 41.392-75.585 23.995-13.797 77.385-4.199 111.578-62.988 8.398-14.997 10.798-28.194 19.796-38.992 16.797-19.796 61.788-32.994 97.181-32.994 29.994 0 56.389 64.187 142.172 35.393 26.995-8.998 41.992-14.997 73.186 5.999 61.788 40.792 31.194 56.389 62.388 107.979 29.994 49.79 67.787 34.793 89.982 80.384 9.598 19.796 11.398 34.193 11.398 56.989 0 29.394-38.393 46.791-38.393 101.38 0 49.79 9.598 68.387 9.598 84.583 0 14.997-5.999 32.994-11.998 43.192-36.593 60.588-92.982 13.797-146.971 103.78-4.199 6.599-5.999 11.998-10.798 18.596-7.798 11.398-14.997 19.796-28.794 26.395-10.198 4.799-32.394 10.798-46.191 10.798-38.992 0-62.988-38.393-110.978-38.393z" />
<glyph unicode="&#xe905;" glyph-name="change-password" d="M854.233 40.979h-374.927c-37.193 0-68.987 8.398-94.781 32.394-50.39 46.791-54.589 125.376-2.999 177.565 19.796 19.796 50.39 35.393 89.383 35.393h391.723c54.589 0 92.982-28.794 114.578-71.986 23.395-47.391 7.798-109.779-26.995-139.773-23.995-20.996-51.59-33.593-95.981-33.593zM356.33 347.52c0-13.197 6.599-41.992 8.398-56.989s-14.397-14.997-26.995-38.393h-35.393c2.4 5.399 4.199 26.395 5.999 34.793 1.8 12.598 4.199 24.595 5.399 36.593 2.4 15.597 5.999 21.596 0 35.993-5.999 15.597-13.197 8.398-13.197 35.993 0 19.796 20.996 33.593 34.193 33.593 22.196 0 38.992-14.997 38.992-38.992 0-19.196-17.397-24.595-17.397-42.592zM264.548 391.911c0-14.397 4.799-28.794 10.798-37.193 8.998-13.797 5.999-11.998 2.4-37.193-2.4-14.397-4.199-26.995-6.599-40.792-2.4-11.998-5.399-29.394-6.599-41.992 25.195-16.797-7.199-18.596 54.589-18.596-10.198-43.791-8.398-20.996-8.398-71.386h-275.946v389.924h602.882v-214.158h-182.364c-26.395 0-47.991-13.197-57.589-15.597 0 13.797-5.399 26.395-5.399 40.792 0 2.999 29.394 30.594 10.798 73.786-30.594 71.986-138.573 50.39-138.573-27.595zM142.172 667.857c0 27.595 9.598 57.589 18.596 76.785 10.198 21.596 24.595 38.992 41.392 55.789 26.995 26.995 74.385 50.39 113.378 53.39 6.599 0 19.796 1.8 23.995 1.2 46.191-3.599 87.583-14.997 121.176-44.991 23.995-21.596 39.592-38.393 53.989-69.586 23.395-50.39 17.397-113.378 17.397-169.767h-389.924v97.181zM106.179 659.459v-88.783h-105.579v-461.91h320.337c0.6-10.198 14.997-31.794 20.396-38.992 8.398-11.998 18.596-21.596 30.594-31.194 20.396-15.597 54.589-31.794 90.582-31.794h408.52c23.395 0 44.991 6.599 61.188 13.797 22.796 10.798 47.391 30.594 61.188 50.99 80.384 119.377-15.597 248.951-118.777 248.951h-200.961v250.151h-105.579c0 99.581 6.599 167.367-61.188 244.152-10.798 11.998-33.593 31.194-47.391 39.592-7.199 4.199-12.598 6.599-19.796 10.798-58.789 32.394-140.373 31.794-201.561 2.4-74.985-35.993-131.974-114.578-131.974-208.159zM581.286 165.155c0-46.791 66.587-46.791 66.587 0 0 8.998-4.799 17.996-9.598 22.796-20.396 20.396-56.989 5.399-56.989-22.796zM477.507 165.155c0-46.191 66.587-47.391 66.587 0 0 19.796-19.796 32.394-30.594 32.394-19.196 0-35.993-13.797-35.993-32.394zM789.446 168.755c0-10.798-0.6-22.196 11.398-31.194 25.195-18.596 55.189 0.6 55.189 25.795 0 24.595-29.994 47.391-55.789 25.195-4.199-3.599-10.798-12.598-10.798-19.796zM685.666 168.755c0-54.589 66.587-47.991 66.587-3.599 0 17.996-16.797 32.394-34.193 32.394-14.997 0-32.394-14.997-32.394-28.794z" />
<glyph unicode="&#xe906;" glyph-name="close" d="M275.946 624.665c0-10.798 11.398-18.596 17.397-25.195 7.798-7.199 14.397-13.797 22.196-21.596 9.598-9.598 125.975-125.376 129.575-130.175-3.599-4.799-16.197-16.197-21.596-20.996l-128.975-129.575c-19.196-19.196-26.995-23.395-6.599-43.791l37.193-36.593c15.597-11.398 23.995 1.8 35.393 13.197 14.997 14.997 146.371 147.571 151.77 151.17 4.199-3.599 142.772-142.772 160.769-161.368 17.996-17.996 27.595-1.8 47.991 18.596l22.196 22.796c11.398 15.597-1.8 23.995-13.197 35.393l-107.979 107.979c-6.599 6.599-40.192 39.592-42.592 43.192 2.999 4.799 118.777 119.377 128.375 129.575 4.199 3.599 34.793 34.193 37.193 37.793 8.998 14.997-7.798 26.395-23.395 41.992-4.799 4.799-9.598 9.598-14.997 14.997-2.4 2.4-4.199 4.799-7.199 7.199-15.597 11.998-25.195-2.4-35.393-12.598-7.798-7.798-14.397-14.397-22.196-22.196-9.598-9.598-125.376-125.975-129.575-129.575-5.399 3.599-16.797 16.197-21.596 21.596l-129.575 128.975c-18.596 18.596-23.395 26.995-43.192 7.199l-37.193-37.193c-1.8-2.4-4.799-6.599-4.799-10.798zM509.9-10.61c76.185 0 152.97 20.396 207.559 48.591 7.199 3.599 11.398 6.599 17.996 10.198l35.393 21.596c88.783 64.787 149.971 142.772 181.165 248.951 26.995 93.582 24.595 186.564-5.999 278.946-4.199 11.998-10.798 28.794-16.197 40.792-12.598 25.795-25.195 49.79-41.992 71.986-4.199 6.599-7.199 10.798-11.398 16.797l-26.395 30.594c-45.591 48.591-85.783 77.985-148.171 107.979-109.179 52.79-246.552 53.39-359.93 8.398-7.798-2.999-13.197-5.999-19.796-8.998-62.388-25.195-118.177-74.385-162.568-123.576-19.796-22.796-41.992-58.189-56.389-85.783-49.19-89.383-61.188-207.559-37.793-309.54 24.595-109.179 92.982-211.759 183.564-273.547 47.991-32.394 100.78-58.189 158.369-70.786 31.794-6.599 68.987-12.598 102.58-12.598zM1024 466.896v-37.793c0-106.779-54.589-239.353-122.976-313.139-32.394-34.793-53.39-58.789-97.781-88.183-23.995-16.197-50.99-34.193-79.185-45.591-79.185-32.394-129.575-46.191-219.557-46.191-73.186 0-156.569 22.196-205.76 46.791-7.199 3.599-13.797 5.999-20.396 10.198-20.996 12.598-32.394 16.797-59.388 35.393-47.391 32.994-92.982 79.185-125.975 125.975-8.998 11.998-16.197 24.595-24.595 38.393l-21.596 42.592c-29.994 58.789-46.791 137.973-46.791 220.157 0 94.182 34.793 208.159 90.582 283.145 23.395 32.394 29.994 41.392 56.989 68.387 46.791 46.791 80.384 71.386 144.572 103.78 46.791 23.395 130.175 49.19 200.961 49.19h37.793c82.184 0 177.565-32.394 238.153-68.987 35.393-20.996 76.185-50.99 105.579-80.384l55.789-67.187c8.998-12.598 15.597-23.395 23.995-37.193 36.593-61.788 69.586-155.37 69.586-239.353z" />
<glyph unicode="&#xe907;" glyph-name="color-pikker" d="M314.339 382.913c22.196 0 38.393-1.8 54.589-18.596 24.595-26.395 9.598-58.789 22.796-102.58 7.199-22.196 20.996-40.792 41.392-52.79 50.39-28.194 94.182-4.799 124.776-31.794 32.994-28.794 25.795-95.981-19.796-109.179-41.392-11.398-117.577 4.799-157.169 24.595-65.987 32.394-106.779 92.982-119.377 164.968-4.799 24.595-8.998 61.188-2.4 84.583 5.999 20.996 27.595 40.792 55.189 40.792zM172.166 121.364c74.385-143.972 208.159-185.364 341.933-185.364 152.37 0 276.546 55.189 343.133 185.364 122.376 296.342-122.976 696.464-343.133 838.636-220.757-146.371-478.707-565.69-341.933-838.636z" />
<glyph unicode="&#xe908;" glyph-name="control" d="M849.434 656.459c31.194 0 58.189-5.999 78.585-29.394 85.783-96.581-52.19-221.357-137.973-134.974-18.596 18.596-25.795 31.194-29.394 64.187-5.399 46.791 40.192 100.18 88.783 100.18zM415.719 266.535c0 52.19 43.192 96.581 89.383 96.581 32.394 0 50.99-3.599 73.786-26.995 41.392-41.392 38.393-100.18 0-138.573-57.589-57.589-163.168-17.996-163.168 68.987zM477.507 429.704c-32.994-2.999-71.986-31.194-92.382-54.589-77.385-86.983-39.592-240.553 92.382-271.147v-105.579h70.786v101.38c0 8.998 8.398 5.399 24.595 11.998 8.398 3.599 16.797 7.798 24.595 11.998 97.781 53.989 118.777 211.159 3.599 284.944-10.798 6.599-37.793 19.796-52.79 20.996 0 143.972-1.8 300.541 0.6 444.513 0 28.794 9.598 22.796-71.386 22.796v-467.309zM70.786 622.266c0 31.194 8.998 56.989 28.194 74.985 38.992 36.593 98.381 37.193 136.173-1.2 83.984-83.984-28.794-221.957-133.174-139.773-16.197 12.598-31.194 43.192-31.194 65.987zM133.174 796.232c0-13.197-47.391-5.999-91.182-58.189-76.785-89.982-44.391-219.557 64.787-265.748 9.598-3.599 26.395-3.599 26.395-13.197v-460.71h68.987v467.909c14.997 0 42.592 13.197 52.79 19.796l30.594 24.595c54.589 58.789 64.787 134.974 23.395 204.56-18.596 31.194-47.391 53.989-80.984 67.787-34.793 14.397-25.795-19.196-25.795 113.978h-68.987v-100.78zM821.839 723.046c-29.394-2.4-74.985-34.193-89.982-52.79-40.792-50.39-54.589-115.777-26.995-176.366 7.798-17.996 21.596-38.992 34.793-52.19 20.396-19.796 53.39-37.793 82.184-44.391v-398.922h71.386v398.922c17.996 4.199 34.193 10.798 49.19 19.796 8.398 4.799 12.598 8.398 19.796 14.397 32.994 26.995 61.788 71.386 61.788 116.977 0 49.79-8.998 86.383-40.792 122.376-19.796 21.596-61.788 49.79-89.982 52.19v173.966h-71.386v-173.966z" />
<glyph unicode="&#xe909;" glyph-name="copy-icon" d="M518.299 778.236v0l-3.599 2.999h-201.561v152.37h362.929v-195.562c0-6.599 5.999-13.797 13.797-13.797h195.562v-593.284h-156.569v436.715l-107.379 106.779-103.18 103.78zM287.344 781.235h-175.166v-845.235h616.68v168.567h182.964v639.475l-109.179 107.979-104.979 104.38-2.999 3.599h-407.32v-178.765zM702.463 751.841v163.768l163.768-163.768h-163.768zM702.463-37.605h-564.49v793.045h358.73v-193.762c0-6.599 5.399-12.598 12.598-12.598h193.162v-586.685zM522.498 575.475v161.368l161.968-161.368h-161.968z" />
<glyph unicode="&#xe90a;" glyph-name="dashboard" d="M35.393 960h953.214c19.196 0 35.393-16.197 35.393-35.393v-953.214c0-19.196-16.197-35.393-35.393-35.393h-953.214c-19.196 0-35.393 16.197-35.393 35.393v953.214c0 19.196 16.197 35.393 35.393 35.393zM52.79 727.845h918.421v179.365h-918.421v-179.365zM971.21 675.056h-631.077v-686.266h631.077v686.266zM287.344-11.21v686.266h-234.554v-686.266h234.554z" />
<glyph unicode="&#xe90b;" glyph-name="delegation" d="M765.45 96.169v86.983c0 12.598 12.598 19.196 25.195 19.196h163.768c10.198 0 20.996-8.398 20.996-19.196v-90.582c0-3.599-4.199-8.998-6.599-10.798-2.4-2.4-7.798-4.799-12.598-4.799h-171.566c-9.598 0-19.196 9.598-19.196 19.196zM404.921 97.968v83.384c0 13.797 10.798 20.996 25.195 20.996h161.968c14.997 0 25.195-9.598 25.195-24.595v-79.784c0-10.798-8.398-20.996-23.395-20.996h-165.568c-7.199 0-12.598 1.2-16.197 5.399-3.599 2.999-7.199 10.198-7.199 15.597zM44.391 109.966v61.788c0 17.996 6.599 30.594 25.195 30.594h161.968c12.598 0 24.595-6.599 24.595-19.196v-86.983c0-9.598-9.598-19.196-19.196-19.196h-171.566c-16.797 0-20.996 15.597-20.996 32.994zM310.139 592.872v164.368c0 16.197 1.8 29.994 8.998 40.192 5.999 8.998 17.397 17.996 31.794 17.996h319.738c21.596 0 38.992-21.596 38.992-34.793v-208.759c0-14.997-19.796-34.793-40.792-34.793h-311.939c-15.597 0-28.194 6.599-35.393 14.997-7.798 10.198-11.398 23.395-11.398 40.792zM268.148 782.435v-206.96c0-39.592 39.592-80.984 84.583-80.984h136.773v-90.582h-329.336c-15.597 0-31.194-6.599-31.194-21.596v-134.974h-65.387c-34.193 0-63.588-31.794-63.588-65.987v-80.984c0-35.393 27.595-67.787 61.788-67.787h179.365c34.793 0 61.788 33.593 61.788 69.586 0 44.391 6.599 95.381-16.797 122.376-26.995 29.994-64.787 22.796-112.778 22.796v109.779h316.138v-109.779c-47.991 0-83.984 7.199-110.978-22.196-25.195-26.395-17.996-77.385-17.996-122.976 0-21.596 6.599-36.593 17.996-47.991 10.798-10.798 22.196-21.596 43.791-21.596h182.964c26.395 0 58.189 29.394 58.189 67.787v80.984c0 34.193-29.994 65.987-63.588 65.987h-65.987v109.779h316.138v-109.779c-43.791 0-89.982 7.798-113.378-25.195-20.996-28.794-15.597-63.588-15.597-106.779 0-25.195 2.999-41.992 14.397-56.989 8.398-11.398 26.995-25.795 45.591-25.795h184.764c27.595 0 58.189 30.594 58.189 63.588v86.983c0 32.994-31.194 64.187-63.588 64.187h-65.987v134.974c0 15.597-14.997 21.596-30.594 21.596h-329.936v90.582h136.773c44.391 0 85.183 40.192 85.183 79.185v212.958c0 34.793-39.592 76.785-88.783 76.785h-306.54c-52.19 0-92.382-38.992-92.382-80.984zM374.327 625.865c0-11.398 9.598-20.996 20.996-20.996h231.555c26.995 0 27.595 44.391 1.8 44.391h-235.154c-11.998 0-19.196-10.798-19.196-23.395zM374.327 726.646c0-14.997 11.398-23.395 24.595-23.395h227.955c28.194 0 26.395 44.391 1.8 44.391h-235.154c-10.798 0-19.196-10.798-19.196-20.996z" />
<glyph unicode="&#xe90c;" glyph-name="delete" d="M205.16 629.465h104.38v-421.718c0-40.192 62.388-41.992 62.388-3.599v425.317h107.979v-428.316c0-32.994 62.988-32.994 62.988 0v428.316h107.979v-425.317c0-40.192 62.388-35.393 62.388 3.599v421.718h104.38v-630.477h-612.48v630.477zM145.772 761.439h731.257v-69.586h-731.257v69.586zM371.927 897.612h268.148c8.398 0 10.798-2.999 10.798-10.798v-59.388h-278.946v70.186zM309.54 928.806v-101.38h-194.962c-19.796 0-34.793-14.997-34.793-34.793v-131.974c0-36.593 38.992-31.194 58.789-31.194v-661.671c0-17.397 14.397-31.794 31.794-31.794h682.067c17.397 0 31.794 14.397 31.794 31.794v661.671c73.186 0 58.789 4.199 58.789 163.168 0 19.796-14.997 34.793-34.793 34.793h-194.962v101.38c0 16.797-13.797 31.194-31.194 31.194h-341.333c-17.397 0-31.194-14.397-31.194-31.194z" />
<glyph unicode="&#xe90d;" glyph-name="down-arrow" d="M505.101 169.354c35.993 0 40.792 16.197 80.984 56.389l413.319 413.319c17.996 17.397 38.992 40.792 9.598 72.586-39.592 43.192-85.783-19.196-100.78-34.193l-367.728-367.728c-10.198-10.198-16.797-22.196-31.794-25.795-17.397 11.398-350.931 349.132-392.923 391.124-24.595 24.595-38.992 50.39-71.986 50.39-34.193 0-59.988-44.991-31.194-76.785 20.996-23.395 46.191-46.191 68.387-68.387l381.525-381.525c10.798-10.798 22.796-29.394 42.592-29.394z" />
<glyph unicode="&#xe90e;" glyph-name="edit-new-person" d="M587.885 394.31c68.987 0 97.181-4.799 157.169-29.394 29.994-11.998 49.79-26.995 74.385-44.991 4.799-3.599 5.999-5.399 10.198-8.398 46.191-37.793 86.383-97.781 105.579-154.77 4.799-14.397 14.397-47.991 14.397-64.787h-695.264c0.6 32.394 24.595 91.782 38.992 119.977 12.598 24.595 31.794 48.591 49.79 69.586 12.598 15.597 19.796 19.196 29.994 28.794 13.797 12.598 42.592 32.394 59.388 40.792 46.191 23.995 94.182 43.192 155.37 43.192zM109.179 672.656v-104.979h-109.179v-71.386h109.179v-103.78c0-3.599 1.2-4.799 4.799-4.799h65.987v108.579h108.579v71.386h-108.579v110.378h-65.987c-3.599 0-4.799-1.2-4.799-5.399zM437.315 642.062c0 115.777 123.576 190.163 222.557 146.371 9.598-4.199 17.397-8.398 25.195-13.197 15.597-10.798 28.794-22.196 40.192-37.793 48.591-64.187 42.592-153.57-13.797-209.959-21.596-21.596-61.188-46.791-102.58-46.791-44.391 0-70.186 4.799-106.779 31.794-8.998 6.599-13.197 11.398-20.996 19.196-23.395 23.395-43.791 63.588-43.791 110.378zM366.528 652.26c0-71.386 14.997-113.978 56.389-163.168 4.199-4.799 4.799-5.999 8.998-10.198 6.599-6.599 11.998-11.398 19.196-17.397l20.996-16.797c-5.399-1.2-11.398-3.599-16.797-5.399-41.392-15.597-69.586-31.194-106.179-56.989-95.381-68.387-154.77-179.365-167.367-297.542-2.4-21.596-4.199-60.588 29.394-60.588h781.647c16.797 0 31.194 16.197 31.194 32.994 0 50.99-14.997 105.579-29.394 142.172-16.797 40.792-37.193 76.185-62.988 107.979-27.595 33.593-52.79 57.589-88.183 82.784-22.196 16.197-92.982 53.989-116.977 56.389v3.599c13.197 2.999 38.393 29.994 47.991 41.392 10.798 13.797 13.197 16.197 22.796 32.994 36.593 63.588 40.792 142.172 10.798 209.359-36.593 82.184-119.377 137.973-209.959 137.973-36.593 0-65.987-8.998-92.382-19.796-23.395-8.998-51.59-28.194-67.787-44.391-39.592-40.192-71.386-95.381-71.386-155.37z" />
<glyph unicode="&#xe90f;" glyph-name="edit-profile" d="M4.799 468.696c0-71.386 16.197-143.972 46.191-207.559 2.999-7.199 4.799-11.998 8.398-19.196 16.797-29.994 34.793-58.189 55.789-85.183 64.187-80.984 157.169-143.372 257.95-168.567 33.593-8.398 66.587-22.796 66.587 12.598 0 11.398-14.997 13.797-22.796 15.597-60.588 11.398-118.777 35.393-169.167 68.987-7.199 4.799-17.996 10.798-22.196 17.397 11.398 2.999 108.579 58.789 130.175 70.186 64.787 34.793 52.79 62.988 52.79 138.573 0 2.999-19.796 30.594-22.796 35.993-8.398 13.797-13.797 23.395-20.396 38.393-5.999 14.397-10.198 27.595-14.397 44.391-3.599 16.797-21.596 12.598-21.596 36.593v64.187c0 19.796 15.597 16.797 15.597 35.993 0 43.791-5.999 116.377 10.198 148.771 7.199 14.397 15.597 26.395 27.595 35.993l25.795 15.597c62.388 31.194 225.556 29.994 248.951-68.387 6.599-26.995 2.999-110.978 2.999-142.172 8.398-4.199 15.597-11.398 15.597-23.995v-70.786c0-26.395-32.394-15.597-32.394-43.192 0-26.395 37.193-15.597 54.589 5.399 8.998 10.798 16.197 23.395 16.197 42.592 0 26.995 3.599 64.787-5.399 89.982-2.999 6.599-9.598 13.797-10.198 19.196-4.799 26.995 2.4 83.384-2.4 116.977-11.998 83.384-90.582 127.775-172.166 127.775-51.59 0-91.782 0-136.173-22.196-41.392-20.996-68.387-55.189-77.385-100.78-5.999-28.794-1.2-84.583-1.8-116.977-0.6-10.798-4.799-11.398-9.598-19.796-10.798-19.796-6.599-78.585-6.599-102.58 0-15.597 9.598-29.394 19.796-38.992 7.199-7.199 12.598-32.394 16.797-43.791 8.398-20.396 19.196-40.792 31.194-58.789 17.397-26.995 11.998-13.797 11.998-67.187 0-35.393-32.994-41.992-56.389-55.789-8.398-5.399-15.597-8.998-24.595-13.797l-23.395-12.598c-8.998-4.799-15.597-8.398-24.595-13.197-5.399-2.999-6.599-4.199-11.998-7.199-8.398-4.199-30.594-18.596-37.193-19.796-22.196 14.997-59.988 63.588-76.785 88.783-2.4 3.599-3.599 5.999-5.999 9.598-3.599 5.399-7.199 11.998-10.798 17.996-64.187 116.377-74.985 252.551-31.794 379.726 22.796 67.187 63.588 125.975 111.578 173.966 5.399 5.399 7.798 7.798 14.397 13.197 2.999 2.4 4.199 3.599 7.199 6.599 3.599 3.599 4.799 3.599 8.398 6.599 25.195 22.796 54.589 41.392 85.183 56.389 112.178 55.789 237.554 64.187 359.33 23.395 13.197-4.199 30.594-11.398 43.192-17.397 26.395-13.797 50.39-27.595 74.385-44.391s43.791-35.993 64.787-56.389c40.792-41.392 71.986-91.782 93.582-146.371 17.996-44.991 31.194-97.181 31.794-147.571 0-13.797-1.2-41.392 19.196-41.392 18.596 0 18.596 15.597 18.596 29.394 0 109.179-51.59 244.752-128.975 322.737-10.198 10.198-18.596 21.596-29.994 30.594-16.797 13.197-31.794 28.794-50.39 41.392-77.385 52.79-168.567 91.782-272.347 91.782-52.79 0-90.582-2.999-139.773-14.997-24.595-5.999-45.591-13.797-68.387-23.395-46.791-18.596-95.381-47.391-131.974-82.184l-31.794-29.994c-40.792-40.792-76.785-91.182-98.981-144.572-20.996-51.59-41.992-116.377-41.392-172.766 0-11.998-1.8-16.797-1.8-29.394zM599.883-11.21c0 0.6 3.599 8.998 3.599 8.998 4.199 13.197 17.397 59.988 17.397 67.187 6.599-1.8 55.189-50.39 56.989-56.989l-67.187-17.397c0 0-3.599-1.2-3.599-1.2-7.798-2.4 4.199 1.8-2.999-1.2 0 0-0.6 0-1.2-0.6 0 0-0.6 0-1.2-0.6l-1.8 1.8zM714.46 24.783c-6.599 9.598-28.194 29.394-37.793 38.992-7.199 7.199-34.793 31.794-36.593 38.992l182.364 183.564 76.785-76.185-184.764-185.364zM914.221 368.516c10.198 0 41.992-35.393 53.39-46.791 23.995-23.995 16.797-26.995-11.398-55.189-7.798-7.798-22.196-23.995-29.994-28.794l-74.985 74.385c4.199 6.599 34.193 35.393 43.791 44.991 5.399 5.399 8.998 11.398 19.196 11.398zM543.494-50.803c0-19.196 19.796-25.795 34.793-10.798 7.798 7.798 4.799 6.599 16.797 8.998 13.797 3.599 26.395 7.798 40.792 11.398 28.194 6.599 53.39 14.397 81.584 21.596 10.798 2.999 17.397 12.598 28.194 23.995 85.183 84.583 175.766 173.366 259.149 258.55 19.196 19.796 19.196 53.989 0 73.786l-52.19 51.59c-14.997 14.997-23.995 16.797-44.991 16.797-24.595 0-46.191-28.194-59.988-41.992l-243.552-243.552c-7.199-6.599-7.199-4.799-10.198-15.597l-32.994-120.576c-6.599-25.195-17.397-17.996-17.397-34.193z" />
<glyph unicode="&#xe910;" glyph-name="email-icon" d="M1006.004 778.236h-1006.004v-660.471h1024v660.471h-17.996zM353.331 456.098l160.769-134.974 152.37 127.775 293.943-293.943h-908.223l301.141 301.141zM37.193 192.75v527.297l287.344-239.953-287.344-287.344zM694.664 472.895l292.143 244.752v-536.295l-292.143 291.543zM956.813 741.043l-442.714-371.327-443.913 371.327h886.627z" />
<glyph unicode="&#xe911;" glyph-name="email-id" d="M468.508 493.891c0 27.595 5.399 47.991 22.196 66.587 19.796 22.196 55.189 32.994 77.985 22.196l-9.598-52.79c-4.199-20.396-8.998-29.994-19.796-44.391-27.595-37.193-70.786-26.995-70.786 8.398zM32.394 548.48c3.599-2.4 10.198-7.798 14.397-11.998l469.108-389.924 192.562 161.968c5.399 4.799 10.198 8.398 15.597 13.197 4.199 4.199 8.998 7.798 13.797 11.998l223.156 188.963c5.999 5.399 25.795 22.796 30.594 23.995v-547.693h-959.213v549.493zM140.373 504.689v298.142h743.255v-298.142c0-6.599-46.791-42.592-55.789-50.39l-103.18-88.183c-27.595-24.595-66.587-55.189-91.782-78.585-7.798-7.199-16.197-12.598-23.995-19.796l-92.982-79.185-211.159 175.766c-7.798 7.199-15.597 12.598-23.995 19.796l-47.391 39.592c-8.398 6.599-14.997 13.197-23.995 19.796-7.199 5.999-68.987 53.989-68.987 61.188zM916.021 527.484v97.181c10.798-2.999 55.189-38.992 65.987-41.992l-32.394-28.194c-6.599-5.399-26.395-24.595-33.593-26.995zM43.791 582.674l64.187 41.992v-97.181l-32.394 26.395c-7.199 5.999-27.595 22.196-31.794 28.794zM515.899 891.613c1.2-1.2 1.8-1.8 4.199-2.999 19.196-14.997 58.189-37.793 76.185-50.99 2.999-2.999 1.2-1.2 2.999-2.999h-169.167l85.783 56.989zM367.728 834.624h-259.749v-168.567c0-4.799-16.197-13.197-25.795-19.796l-55.789-36.593c-8.398-5.399-26.395-14.997-26.395-20.996v-622.079h1024v622.079c0 7.798-71.986 50.99-82.184 58.189-8.398 5.399-25.795 14.997-25.795 20.996v166.767h-252.551c-11.398 0-139.173 89.383-147.571 94.781-7.199-3.599-12.598-7.199-19.196-11.398l-54.589-35.993c-8.998-5.999-70.786-47.391-74.385-47.391zM359.93 504.689c0-131.374 128.375-178.165 218.357-142.172 5.999 2.4 13.197 6.599 19.196 7.798-2.4 8.998-5.999 14.997-7.798 22.796-7.199-1.8-9.598-4.199-16.197-6.599-32.394-13.797-82.184-14.397-113.978 1.8-17.397 8.398-20.396 10.198-33.593 22.796-0.6 0.6-0.6 0.6-1.2 1.2-34.793 35.993-34.793 71.386-34.193 113.378 0.6 71.986 64.787 143.972 136.773 143.972 26.395 0 37.193 0.6 63.588-10.198 9.598-3.599 27.595-16.797 32.994-23.395 22.196-28.194 29.994-50.39 29.994-89.383 0-21.596-4.799-40.792-11.998-55.789-19.796-40.192-58.189-40.792-58.189-6.599 0 16.797 16.797 99.581 20.996 119.377-34.193 7.798-17.397 9.598-60.588 9.598-21.596 0-45.591-9.598-61.788-21.596-3.599-2.999-3.599-3.599-7.199-5.999-4.199-3.599-4.799-2.999-8.398-7.199-26.995-31.794-47.391-88.783-19.796-122.976 28.794-35.993 79.185-22.196 104.979 13.797 3.599 4.799 2.999 5.399 7.199 7.199 0-65.387 75.585-43.791 100.18-7.199 27.595 40.792 31.194 104.38 10.198 147.571-45.591 91.782-164.968 95.981-232.755 44.991-8.398-6.599-19.196-14.397-25.795-22.196-31.794-40.192-50.99-76.185-50.99-134.974z" />
<glyph unicode="&#xe912;" glyph-name="excel-icon" d="M204.56 26.582v839.836c0 4.199 1.2 4.199 1.8 8.398 4.199 0.6 4.199 1.8 8.398 1.8h385.725v-223.756h218.357v-626.278c0-6.599-8.398-8.398-14.997-8.398h-583.686c-7.199 0-15.597 1.8-15.597 8.398zM307.14 137.561h245.952c-3.599 6.599-5.999 9.598-9.598 16.197-5.399 8.398-28.194 44.391-29.994 50.39h-47.391c1.8 6.599 16.797 26.995 22.196 34.193 4.199 6.599 18.596 30.594 23.395 34.193l92.382-134.974h112.778c-1.8 7.199-28.794 44.991-35.993 55.189l-110.978 164.968c-0.6 2.999 40.192 61.188 45.591 68.987l77.385 115.178h-114.578c-5.999-11.398-61.188-94.182-68.387-98.981-1.2 5.999-11.398 19.196-15.597 25.195-5.399 8.998-10.198 16.197-16.197 24.595-5.399 8.398-10.798 15.597-16.797 24.595-5.399 8.398-11.398 16.197-16.197 24.595h-113.978l118.177-175.166c6.599-10.198 5.399-10.798-6.599-26.395l-101.98-151.17c-6.599-8.998-11.398-15.597-17.397-25.195-4.799-6.599-14.397-19.196-16.197-26.395zM121.176 866.418v-839.836c0-26.395 12.598-47.391 25.195-61.788 10.798-12.598 37.793-28.794 59.988-28.794h610.681c22.196 0 48.591 16.197 59.388 27.595 12.598 13.797 26.395 37.793 26.395 62.988v660.471c0 5.999-42.592 43.791-49.19 51.59-23.395 28.194-59.988 58.189-82.784 85.783l-67.187 67.787c-6.599 6.599-10.198 11.398-16.197 17.996l-34.193 34.193c-3.599 3.599-13.197 15.597-18.596 15.597h-419.918c-51.59 0-93.582-41.992-93.582-93.582z" />
<glyph unicode="&#xe913;" glyph-name="filter" d="M0.6 759.639c0-39.592-5.399-58.789 13.797-58.789h993.406c20.996 0 14.997 23.395 14.997 54.589 0 8.998-4.199 13.797-13.197 13.797h-999.405c-4.199 0-9.598-5.399-9.598-9.598zM119.977 568.277c0-36.593-5.999-58.789 14.997-58.789h753.453c20.996 0 15.597 23.395 15.597 55.189 0 8.398-4.799 13.197-13.197 13.197h-761.251c-4.199 0-9.598-5.399-9.598-9.598zM239.353 376.914c0-34.193-5.999-58.189 14.997-58.189h511.1c24.595 0 19.196 16.797 19.196 54.589 0 8.998-4.799 13.197-13.197 13.197h-522.498c-4.799 0-9.598-4.799-9.598-9.598zM358.73 186.151c0-43.192-6.599-58.789 18.596-58.789h268.748c25.195 0 19.196 16.797 19.196 54.589 0 6.599-3.599 13.197-9.598 13.197h-287.344c-4.799 0-9.598-4.799-9.598-8.998z" />
<glyph unicode="&#xe914;" glyph-name="first" d="M509.9-10.61c76.185 0 152.97 20.396 207.559 48.591 7.199 3.599 11.398 6.599 17.996 10.198l35.393 21.596c88.783 64.787 149.971 142.772 181.165 248.951 26.995 93.582 24.595 186.564-5.999 278.946-4.199 11.998-10.798 28.794-16.197 40.792-12.598 25.795-25.195 49.79-41.992 71.986-4.199 6.599-7.199 10.798-11.398 16.797l-26.395 30.594c-45.591 48.591-85.783 77.985-148.171 107.979-109.179 52.79-246.552 53.39-359.93 8.398-7.798-2.999-13.197-5.999-19.796-8.998-62.388-25.195-118.177-74.385-162.568-123.576-19.796-22.796-41.992-58.189-56.389-85.783-49.19-89.383-61.188-207.559-37.793-309.54 24.595-109.179 92.982-211.759 183.564-273.547 47.991-32.394 100.78-58.189 158.369-70.786 31.794-6.599 68.987-12.598 102.58-12.598zM1024 466.896v-37.793c0-106.779-54.589-239.353-122.976-313.139-32.394-34.793-53.39-58.789-97.781-88.183-23.995-16.197-50.99-34.193-79.185-45.591-79.185-32.394-129.575-46.191-219.557-46.191-73.786 0-156.569 22.196-205.76 46.791-7.199 3.599-13.797 5.999-20.396 10.198-20.996 12.598-32.394 16.797-59.388 35.393-47.391 32.994-92.982 79.185-125.975 125.975-8.998 11.998-16.197 24.595-24.595 38.393l-21.596 42.592c-29.994 58.789-46.791 137.973-46.791 220.157 0 94.182 34.793 208.159 90.582 283.145 23.395 32.394 29.994 41.392 56.989 68.387 46.791 46.791 80.384 71.386 144.572 103.78 46.791 23.395 130.175 49.19 200.961 49.19h37.793c82.184 0 177.565-32.394 238.153-68.987 35.393-20.996 76.185-50.99 105.579-80.384l55.789-67.187c8.398-12.598 15.597-23.395 23.995-37.193 36.593-61.788 69.586-155.37 69.586-239.353zM487.105 613.268c0-16.197-24.595-35.393-34.193-44.991-16.197-16.197-113.378-111.578-119.377-119.977 5.999-8.398 119.977-121.176 139.173-139.773 6.599-6.599 14.397-13.197 14.397-25.195 0-13.197-10.798-26.995-26.395-26.995-17.996 0-37.193 25.195-53.39 41.392l-119.377 119.377c-7.798 7.798-18.596 15.597-19.796 29.394s8.998 22.196 16.797 29.394l142.772 143.372c16.197 15.597 16.197 20.396 36.593 20.396 11.998 0 22.796-14.997 22.796-26.395zM680.867 610.868c0-15.597-25.195-34.793-34.793-44.991-16.197-15.597-113.378-110.978-118.777-119.377 5.399-8.998 119.377-121.176 138.573-140.373 6.599-6.599 14.997-12.598 14.997-24.595 0-13.197-11.398-26.995-26.995-26.995-14.397 0-21.596 9.598-29.394 17.996l-119.977 119.377c-7.798 8.398-14.997 14.997-23.395 23.395-35.393 35.393-20.396 41.392 20.996 82.784 16.197 16.197 31.794 31.794 47.991 47.991l71.386 71.386c15.597 15.597 15.597 20.396 36.593 20.396 11.398 0 22.796-14.997 22.796-26.995z" />
<glyph unicode="&#xe915;" glyph-name="home" d="M511.7 691.252l-364.729-301.141c0-0.6-0.6-1.2-0.6-1.8 0-1.2 0-1.8 0-2.4v-304.74c0-10.798 3.599-20.396 11.998-28.194 7.798-8.398 17.397-11.998 28.194-11.998h244.152v243.552h162.568v-243.552h243.552c11.398 0 20.996 3.599 28.794 11.998 7.798 7.798 11.998 17.397 11.998 28.194v304.74c0 1.8 0 2.999-0.6 4.199l-365.329 301.141zM1016.801 458.498l-139.173 115.777v259.149c0 5.999-1.8 10.798-5.399 14.397-4.199 3.599-8.998 5.999-14.997 5.999h-121.776c-5.999 0-10.798-2.4-14.397-5.999-4.199-3.599-5.999-8.398-5.999-14.397v-124.176l-154.77 129.575c-13.797 11.398-29.994 16.797-48.591 16.797s-34.793-5.399-47.991-16.797l-456.511-380.326c-4.199-3.599-6.599-7.798-7.199-13.797-0.6-5.399 1.2-10.198 4.799-14.997l38.992-46.791c3.599-3.599 7.798-5.999 13.197-6.599s10.198 0.6 15.597 4.199l439.114 366.528 439.714-366.528c3.599-2.999 7.798-4.199 13.197-4.199h1.8c5.399 0.6 10.198 2.999 13.797 6.599l38.992 46.791c3.599 4.799 4.799 9.598 4.799 14.997-0.6 5.999-2.999 10.198-7.199 13.797z" />
<glyph unicode="&#xe916;" glyph-name="information" d="M46.791 434.503c-3.599 16.797 5.399 85.783 9.598 106.779 16.197 78.585 53.39 153.57 106.179 213.558 77.385 88.183 190.763 147.571 308.94 156.569 10.198 0.6 18.596 0.6 27.595 1.8 8.398 1.2 19.196 0.6 27.595-0.6 20.396-2.999 35.393 0 77.985-8.998 30.594-5.999 62.388-15.597 88.783-27.595 35.393-16.197 61.788-29.994 92.982-52.79 5.999-4.199 10.798-8.398 16.197-12.598 3.599-2.4 4.199-3.599 7.199-5.999l52.19-50.99c8.998-10.198 17.996-20.996 25.795-32.394 47.991-67.787 80.984-148.171 87.583-232.755 0.6-10.198 0-18.596 1.2-27.595 2.999-20.996-4.799-84.583-8.998-105.579-12.598-59.988-35.993-115.178-68.387-164.368-77.985-116.377-206.36-194.962-346.732-206.36-44.991-3.599-89.383-1.2-133.774 7.798-47.391 10.198-86.983 25.195-127.775 46.791-23.395 11.998-56.989 34.793-77.385 52.79l-37.793 35.993c-4.799 5.399-9.598 8.998-14.397 14.397-32.994 39.592-45.591 59.388-68.987 105.579-12.598 25.195-23.395 55.189-30.594 85.183-4.199 16.197-7.199 29.994-9.598 48.591l-5.399 52.79zM418.718 451.899v19.196h112.778c16.797 0 26.995-10.198 26.995-26.995v-251.951c-109.779 0-92.982-20.396-92.982 139.773 0 18.596 3.599 67.787-2.4 80.984-10.198 20.996-44.391 2.4-44.391 38.992zM372.527 496.291v-55.789c0-24.595 25.795-53.39 46.191-58.189 0-49.79 0-99.581 0-149.371 0-31.794 0-40.792 13.797-59.988 8.998-11.398 29.394-27.595 48.591-27.595h102.58c11.398 0 20.996 10.198 20.996 21.596v289.144c0 28.794-32.394 61.788-61.788 61.788h-149.371c-11.398 0-20.996-10.198-20.996-21.596zM465.509 657.659c0 37.193 47.991 62.988 79.185 32.394 42.592-42.592-22.796-107.979-65.387-64.787-5.999 5.999-13.797 20.396-13.797 32.394zM418.718 665.458v-15.597c0-41.392 43.791-85.183 85.183-85.183h15.597c41.392 0 85.183 43.791 85.183 85.183v15.597c0 41.392-43.791 85.183-85.183 85.183h-15.597c-41.392 0-85.183-43.791-85.183-85.183zM0 467.496v-38.992c0-69.586 24.595-149.971 47.991-197.961l32.394-58.789c22.796-37.793 52.79-68.987 83.984-100.18 13.797-14.397 52.19-43.192 69.586-54.589 71.986-44.391 164.968-80.984 258.55-80.984h38.992c68.987 0 150.571 25.195 197.961 47.991 14.397 7.199 26.395 13.197 39.592 20.996 62.988 37.793 84.583 58.789 133.774 112.178 4.799 4.799 10.198 11.398 13.797 16.797 25.195 33.593 40.792 58.189 59.388 96.581 22.796 47.391 47.991 128.975 47.991 197.961v38.992c0 90.582-40.792 204.56-92.982 275.346-4.799 6.599-8.398 11.398-13.197 17.996-4.799 5.999-8.998 11.998-13.797 17.397-37.193 41.392-52.79 55.789-95.981 88.183-5.999 4.799-11.998 8.398-18.596 12.598-71.986 44.991-164.368 80.984-257.95 80.984h-38.992c-70.186 0-150.571-24.595-198.561-47.991-23.395-10.798-55.789-29.394-76.785-44.991-6.599-4.199-11.398-8.398-17.996-13.197-24.595-18.596-41.992-36.593-64.187-58.189-17.996-18.596-52.79-65.387-65.987-88.783-23.395-42.592-41.992-83.384-53.39-130.774-7.798-30.594-15.597-70.786-15.597-108.579z" />
<glyph unicode="&#xe917;" glyph-name="lest" d="M513.5-10.61c-76.185 0-152.37 20.396-206.96 48.591-7.199 3.599-11.398 6.599-18.596 10.198l-34.793 21.596c-88.783 64.787-150.571 142.772-181.165 248.951-27.595 93.582-24.595 187.163 5.999 278.946 4.199 11.998 10.198 28.794 16.197 40.792 12.598 25.795 25.195 49.79 41.392 71.986 4.799 6.599 7.199 10.798 11.998 16.797l26.395 30.594c44.991 48.591 85.183 77.985 147.571 107.979 109.779 52.79 247.152 53.39 360.53 8.398 7.798-2.999 13.197-5.999 19.796-8.998 62.388-25.195 118.177-74.385 161.968-123.576 20.396-22.796 41.992-58.189 56.989-85.783 48.591-89.383 60.588-207.559 37.793-309.54-24.595-109.179-92.982-211.759-183.564-273.547-47.991-32.394-100.78-58.189-158.369-70.786-31.794-6.599-68.987-12.598-103.18-12.598zM0 466.896v-37.793c0-106.779 53.989-239.353 122.976-313.139 31.794-34.793 53.39-58.789 97.181-88.183 24.595-16.197 51.59-34.193 79.784-45.591 78.585-32.394 128.975-46.191 219.557-46.191 73.186 0 155.97 22.196 205.16 46.791 7.199 3.599 14.397 5.999 20.996 10.198 20.996 12.598 32.394 16.797 58.789 35.393 47.391 32.994 93.582 79.185 126.575 125.975 8.398 11.998 16.197 24.595 23.995 38.393l22.196 42.592c29.394 58.789 46.791 137.973 46.791 220.157 0 94.182-35.393 208.159-90.582 283.145-23.995 32.394-29.994 41.392-56.989 68.387-46.791 46.791-80.384 71.386-144.572 103.78-46.791 23.395-130.774 49.19-200.961 49.19h-37.793c-82.784 0-177.565-32.394-238.153-68.987-35.393-20.996-76.185-50.99-105.579-80.384l-56.389-67.187c-8.398-12.598-15.597-23.395-23.395-37.193-37.193-61.788-69.586-155.37-69.586-239.353zM536.295 613.268c0-16.197 25.195-35.393 34.793-44.991 16.197-16.197 113.378-111.578 118.777-119.977-5.399-8.398-119.377-121.176-138.573-139.773-6.599-6.599-14.997-13.197-14.997-25.195 0-13.197 11.398-26.995 26.995-26.995 17.996 0 36.593 25.195 53.39 41.392l119.377 119.377c7.798 7.798 18.596 15.597 19.796 29.394 0.6 13.797-8.998 22.196-16.797 29.394l-143.372 143.372c-15.597 15.597-15.597 20.396-36.593 20.396-11.398 0-22.796-14.997-22.796-26.395zM343.133 610.868c0-15.597 25.195-34.793 34.793-44.991 15.597-15.597 113.378-110.978 118.777-119.377-5.399-8.998-119.377-121.176-138.573-140.373-6.599-6.599-14.997-12.598-14.997-24.595 0-13.197 10.798-26.995 26.395-26.995 14.997 0 22.196 9.598 29.994 17.996l119.377 119.377c8.398 8.398 15.597 14.997 23.995 23.395 35.393 35.393 20.396 41.392-20.996 82.784-16.797 16.197-31.794 31.794-48.591 47.991l-70.786 71.386c-16.197 15.597-15.597 20.396-36.593 20.396-11.398 0-22.796-14.997-22.796-26.995z" />
<glyph unicode="&#xe918;" glyph-name="log-out" d="M-6.599 460.298c0-68.387 4.799-103.78 26.395-162.568 2.999-8.998 6.599-19.196 11.398-28.194l13.797-27.595c8.398-17.996 20.396-35.993 31.794-50.99l26.995-33.593c20.996-22.196 24.595-28.194 52.79-50.39 32.394-25.795 62.388-44.391 102.58-61.788 122.976-53.39 274.146-46.191 394.723 25.795 17.397 10.198 32.994 20.396 47.991 32.994 11.998 9.598 35.393 28.794 43.192 40.192-16.197 0-34.793 0.6-50.39 0-10.198-0.6-10.198-2.999-16.197-7.798l-44.991-31.194c-11.398-6.599-22.196-12.598-33.593-17.996-101.98-50.39-231.555-49.79-334.135-2.4-19.196 8.998-46.191 23.395-62.388 35.393l-28.794 21.596c-77.985 70.186-127.175 152.37-139.773 259.149-5.399 46.791-3.599 89.982 7.199 134.974 6.599 26.995 13.797 51.59 23.995 74.385 25.195 55.789 52.79 89.383 92.982 130.175 4.799 4.799 7.798 6.599 13.197 10.798 28.194 27.595 86.983 59.988 125.376 73.186 132.574 43.791 269.347 23.995 379.126-62.988 6.599-4.799 6.599-8.998 16.197-9.598 14.997-1.2 36.593 0 52.19 0-4.199 5.999-37.193 33.593-42.592 38.393-125.975 101.38-298.142 123.576-443.313 60.588-58.789-25.195-78.585-43.192-124.176-79.784l-40.192-42.592c-19.196-24.595-34.793-43.791-49.19-73.186-2.999-5.399-4.799-8.398-7.798-13.197-14.397-26.995-29.994-76.785-35.993-107.379-4.199-21.596-8.398-47.991-8.398-74.385zM831.438 591.072c1.8-7.798 52.19-54.589 58.789-61.788l59.988-60.588h-607.681v-41.392h607.681l-119.377-120.576c2.999-10.798 21.596-19.796 28.194-29.994l170.967 170.967-169.767 170.967c-5.399-3.599-8.398-7.798-14.397-12.598-5.999-4.199-10.798-8.998-14.397-14.997z" />
<glyph unicode="&#xe919;" glyph-name="maximize-widget" d="M704.262 823.827c-6.599-9.598-82.184-83.384-97.181-97.781-14.997-15.597-92.982-86.383-92.982-103.18 0-25.795 14.397-32.394 36.593-54.589l83.384-83.384c58.189-58.189 45.591-51.59 153.57 56.389 14.997 14.997 89.982 92.382 99.581 98.981l136.173-134.974 0.6 454.711h-454.711l134.974-136.173zM136.773 256.337l-136.173 134.974-0.6-455.311h454.111l-134.974 136.173c7.199 10.198 127.775 128.375 147.571 148.171 13.197 13.797 43.192 37.193 43.192 56.989 0 20.996-23.395 37.193-34.793 48.591l-85.183 85.183c-58.189 58.189-45.591 51.59-153.57-56.389-14.997-14.997-90.582-92.382-99.581-98.381z" />
<glyph unicode="&#xe91a;" glyph-name="my-access" d="M818.84 188.551c-20.996 0-48.591 6.599-63.588 13.197-17.397 7.798-34.193 17.397-47.391 29.994-100.18 91.782-38.393 275.346 108.579 275.346 152.97 0 220.157-197.361 92.382-288.544-23.995-17.397-60.588-29.994-89.982-29.994zM707.262 523.285c0 73.186-8.998 128.375 51.59 168.567 50.39 33.593 120.576 13.797 151.17-35.393 21.596-34.793 15.597-82.184 15.597-133.174-17.397 8.998-25.795 14.997-47.391 21.596-67.187 19.796-113.378 8.398-170.967-21.596zM614.28 352.919c0-85.183 46.191-160.169 122.376-193.762 90.582-40.192 196.162-10.198 250.151 71.386 7.798 10.798 13.197 20.396 17.996 32.394 30.594 67.187 23.995 143.372-17.397 202.76-7.199 10.798-13.197 10.198-14.397 22.796v113.978c0.6 83.384-71.386 151.77-154.17 151.77-81.584 0-154.17-67.787-154.17-148.771v-111.578c-1.2-26.395-50.39-55.789-50.39-140.972zM0 448.9c0-12.598 13.197-23.995 26.395-23.995h497.303c35.393 0 34.193 47.391 2.999 47.391h-500.302c-13.197 0-26.395-11.398-26.395-23.395zM824.239 300.129c-79.784 0-65.987 95.381-10.798 95.381 22.796 0 39.592-4.799 48.591-28.794 15.597-41.392-18.596-66.587-37.793-66.587zM720.459 352.919c0-77.385 73.786-117.577 133.174-92.982 11.998 5.399 19.796 10.798 29.394 18.596 55.789 49.19 35.993 157.169-62.988 165.568-50.39 4.199-99.581-38.393-99.581-91.182zM90.582 355.918c0-14.397 5.999-23.995 20.996-23.995h393.523c28.794 0 31.794 47.391-7.798 47.391h-377.926c-16.197 0-28.794-7.199-28.794-23.395zM180.565 613.268h359.33c7.798 0 16.797 2.4 20.996 5.399 20.396 13.197 6.599 42.592-7.798 42.592h-380.326c-30.594 0-32.994-47.991 7.798-47.991zM161.968 262.936c0-17.996 13.797-26.995 32.394-26.995h323.937c40.192 0 36.593 47.991 8.398 47.991h-346.132c-7.798 0-18.596-13.197-18.596-20.996zM345.533 544.281c0-17.996 10.198-26.395 29.394-26.395 31.794 0 170.967-4.799 185.964 4.799 17.397 11.398 12.598 42.592-10.198 42.592h-183.564c-13.197 0-21.596-8.398-21.596-20.996zM425.317 140.56c31.794 0 167.967-4.799 183.564 5.399 17.397 10.798 12.598 42.592-10.798 42.592h-180.565c-30.594 0-32.994-47.991 7.798-47.991zM436.115 732.644c0-13.797 5.999-23.995 20.996-23.995h133.174c32.394 0 31.194 47.991-2.4 47.991h-122.376c-16.797 0-29.394-7.798-29.394-23.995zM209.959 544.281c0-33.593 41.992-26.395 74.385-26.395 7.798 0 16.797 2.4 21.596 4.799 20.396 13.197 5.999 42.592-8.398 42.592-37.193 0-87.583 8.998-87.583-20.996zM268.748 166.955c0-30.594 33.593-26.395 55.789-26.395 33.593 0 35.393 47.991 5.399 47.991-17.397 0-61.188 7.199-61.188-21.596zM358.73 732.644c0-29.994 47.991-32.994 47.991 0 0 29.394-47.991 28.194-47.991 0z" />
<glyph unicode="&#xe91b;" glyph-name="my-action" d="M532.696 20.583l-47.991 41.392c-4.799 4.199-5.999 4.799-10.798 8.398-3.599 2.999-4.799 5.399-8.398 8.398l-29.394 25.795c-6.599 6.599-53.39 49.79-59.988 51.59-1.2-5.999-7.798-16.197-10.798-21.596l-84.583-150.571c-5.399 1.2-17.397 8.998-22.796 11.998-7.798 4.799-14.997 8.398-22.796 12.598 1.2 7.199 18.596 35.993 22.796 43.791 8.998 14.397 15.597 28.194 23.995 42.592 3.599 5.999 46.191 79.185 48.591 87.583l-97.181 30.594c-15.597 5.399-32.394 10.198-47.991 15.597l-49.79 14.997 322.737 256.15c19.196 14.997 140.373 113.978 148.771 116.377l-18.596-147.571c-14.997-122.376-29.994-251.951-46.791-373.127l-8.998-74.985zM87.583 241.94c0-18.596 12.598-33.593 25.195-40.192l96.581-31.194c9.598-2.999 15.597-4.799 24.595-7.798 6.599-2.4 19.196-5.999 25.795-6.599-1.8-19.196-74.385-121.776-74.385-147.571 0-27.595 20.396-37.193 36.593-47.391 28.794-17.397 71.986-45.591 98.381-1.2 7.798 13.797 13.797 26.395 22.196 40.192l44.991 80.984c10.798-2.4 104.979-91.782 118.777-100.78 19.796-12.598 41.392-8.398 57.589 7.199 8.998 8.398 13.197 17.996 14.397 32.994 3.599 28.794 7.798 58.789 11.398 86.383 7.199 57.589 14.997 114.578 20.996 171.566 3.599 29.994 42.592 319.138 42.592 345.533 0 20.996-19.796 41.992-43.791 41.992-19.196 0-28.194-9.598-38.992-18.596-11.998-8.998-22.196-16.797-33.593-25.795-11.398-9.598-21.596-17.397-32.994-26.395l-98.981-78.585c-11.398-8.398-21.596-16.797-32.994-25.795l-247.152-196.162c-18.596-14.997-37.193-23.995-37.193-52.79zM340.134 675.656c0-28.194-0.6-70.786 10.798-94.182 8.998-19.196 42.592-14.397 42.592 10.198 0 10.198-2.999 15.597-4.799 25.795-8.398 48.591-0.6 109.179 20.396 151.17 13.797 27.595 26.995 47.991 49.79 70.786 40.192 40.192 106.179 72.586 165.568 72.586 48.591 0 77.385-2.999 121.176-23.995 65.987-31.794 117.577-94.182 134.974-166.168 13.797-55.789 8.398-106.779-11.998-158.369-11.398-27.595-25.195-47.991-43.791-68.987-5.399-5.399-6.599-8.998-12.598-14.397-3.599-2.999-4.199-2.999-7.798-5.999-26.995-22.796-43.192-33.593-77.985-47.391-14.997-5.999-31.194-5.999-31.194-29.994 0-9.598 9.598-20.996 22.796-20.996 23.395 0 80.984 32.394 102.58 50.39 17.996 14.397 25.195 19.796 39.592 36.593 24.595 29.994 38.992 49.19 54.589 86.983 29.394 72.586 28.794 167.367-6.599 237.554-8.398 17.996-14.997 29.394-25.795 44.991-15.597 23.995-46.191 54.589-69.586 71.386l-31.794 19.796c-62.388 32.394-89.383 36.593-162.568 36.593-49.19 0-114.578-25.195-154.17-55.189-26.395-20.396-51.59-43.791-70.786-71.386-28.794-42.592-53.39-100.78-53.39-157.769z" />
<glyph unicode="&#xe91c;" glyph-name="my-request" d="M64.187 98.568c0-12.598 1.8-16.197 1.8-28.194 5.399 1.2 38.992 25.195 46.791 30.594 4.799 2.999 13.797 6.599 13.797 12.598v540.494h475.707v-578.287h-56.389v-54.589h-302.341c-5.399 0-44.391-41.392-47.391-45.591l366.528-1.8c5.999 0 52.19 48.591 59.988 57.589 5.999 5.999 34.793 35.393 34.793 38.992v628.677h-593.284v-600.483zM381.525 927.606c0-25.195 1.8-43.791 1.8-69.586h47.391c6.599 0 7.199 1.2 13.197 1.8v43.791h478.107v-629.277h-73.786l-1.8-45.591h128.375v731.257h-593.284v-32.394zM217.158 731.445c25.195 0 43.192-1.8 67.787-1.8v60.588h476.307v-638.875c-22.196 0-38.393-1.8-60.588-1.8-16.197 0.6-13.197-0.6-13.197-16.797 0.6-13.197-1.8-17.397-1.8-30.594h128.375v489.504c0 83.384 1.8 160.169 1.8 243.552h-598.683v-103.78zM49.19 2.587l60.588-66.587 53.989 51.59c18.596 18.596 35.993 33.593 53.989 52.19l80.984 77.385c7.798 7.798 19.796 21.596 28.194 26.995-7.199 10.798-58.189 62.988-68.387 69.586-13.197-8.998-60.588-61.188-77.385-78.585-9.598-9.598-17.397-17.397-26.995-26.395-26.995-27.595-52.79-52.19-77.985-80.384-5.999-6.599-20.996-21.596-26.995-25.795zM160.769 517.886h407.92v34.193h-407.92zM160.769 438.702h407.92v34.193h-407.92zM160.769 359.517h407.92v33.593h-407.92zM160.769 586.273h407.92v33.593h-407.92zM160.769 302.528h226.756v22.796h-226.756zM281.345 231.142l45.591-45.591c6.599-4.799 10.798-10.798 16.797-14.997l20.996 82.784c-5.999 0-15.597-3.599-20.996-5.399l-41.392-11.398c-5.399-1.8-14.997-5.399-20.996-5.399z" />
<glyph unicode="&#xe91d;" glyph-name="my-settings" d="M944.216 774.636c-4.199 10.198-9.598 19.796-15.597 27.595 17.996 40.192 26.995 64.787 26.995 73.786 0 1.2-0.6 2.4-2.4 3.599-42.592 24.595-64.787 37.193-65.987 37.193l-2.999-1.2c-14.997-14.397-31.194-34.193-49.19-59.388-7.199 0.6-12.598 1.2-16.197 1.2s-8.398-0.6-15.597-1.2c-5.399 7.199-14.397 19.196-28.194 35.993-13.197 16.197-21.596 24.595-23.995 24.595-1.2 0-6.599-2.999-16.197-8.398-10.198-5.999-20.396-11.998-31.794-17.996-10.798-6.599-16.797-10.198-18.596-10.798-1.2-1.2-1.8-2.4-1.8-3.599 0-8.998 8.998-33.593 26.995-73.786-5.999-7.798-11.398-17.397-16.197-27.595-52.79-5.399-79.185-10.798-79.185-16.197v-74.985c0-5.399 26.395-10.798 79.185-16.197 4.799-9.598 9.598-18.596 16.197-27.595-17.996-40.192-26.995-64.787-26.995-73.786 0-1.2 0.6-2.4 1.8-3.599 43.791-25.195 65.387-37.793 66.587-37.793 2.4 0 10.798 8.398 23.995 25.195 13.797 16.797 22.796 28.794 28.194 35.993 7.199-0.6 11.998-1.2 15.597-1.2s8.998 0.6 16.197 1.2c4.799-7.199 14.397-19.196 27.595-35.993 13.797-16.797 21.596-25.195 24.595-25.195 0.6 0 22.796 12.598 65.987 37.793 1.8 1.2 2.4 2.4 2.4 3.599 0 8.998-8.998 33.593-26.995 73.786 5.999 8.998 11.398 17.996 15.597 27.595 53.39 5.399 79.784 10.798 79.784 16.197v74.985c0 5.399-26.395 10.798-79.784 16.197zM944.216 229.343c-4.199 10.198-9.598 19.796-15.597 27.595 17.996 40.192 26.995 64.787 26.995 73.786 0 1.2-0.6 2.4-2.4 3.599-42.592 25.195-64.787 37.193-65.987 37.193l-2.999-1.2c-14.997-14.397-31.194-34.193-49.19-59.388-7.199 0.6-12.598 1.2-16.197 1.2s-8.398-0.6-15.597-1.2c-5.399 7.798-14.397 19.796-28.194 35.993-13.197 16.797-21.596 24.595-23.995 24.595-1.2 0-6.599-2.4-16.197-8.398-10.198-5.399-20.396-11.398-31.794-17.996-10.798-6.599-16.797-10.198-18.596-10.798-1.2-1.2-1.8-2.4-1.8-3.599 0-8.998 8.998-33.593 26.995-73.786-5.999-7.798-11.398-17.397-16.197-27.595-52.79-5.399-79.185-10.798-79.185-16.197v-74.385c0-5.999 26.395-11.398 79.185-16.797 4.799-9.598 9.598-18.596 16.197-27.595-17.996-40.192-26.995-64.787-26.995-73.786 0-1.2 0.6-2.4 1.8-3.599 43.791-25.195 65.387-37.793 66.587-37.793 2.4 0 10.798 8.398 23.995 25.195 13.797 16.797 22.796 28.794 28.194 35.993 7.199-0.6 11.998-1.2 15.597-1.2s8.998 0.6 16.197 1.2c4.799-7.199 14.397-19.196 27.595-35.993 13.797-16.797 21.596-25.195 24.595-25.195 0.6 0 22.796 12.598 65.987 37.793 1.8 1.2 2.4 2.4 2.4 3.599 0 8.998-8.998 33.593-26.995 73.786 5.999 8.998 11.398 17.996 15.597 27.595 53.39 5.399 79.784 10.798 79.784 16.797v74.385c0 5.399-26.395 10.798-79.784 16.197zM867.431 127.363c-13.197-13.197-29.394-19.796-48.591-19.796-18.596 0-34.793 6.599-47.991 19.796-13.197 13.797-19.796 29.394-19.796 48.591 0 17.996 6.599 34.193 19.796 47.991 13.797 13.197 29.994 19.796 47.991 19.796 18.596 0 34.793-6.599 47.991-19.796 13.797-13.797 20.396-29.994 20.396-47.991 0-19.196-6.599-34.793-19.796-48.591zM622.079 256.937c0 3.599-1.2 7.199-3.599 10.798-19.796 23.995-35.993 44.391-47.991 61.188 7.798 14.997 13.197 28.194 17.397 40.792l82.184 12.598c3.599 0.6 5.999 2.4 8.998 5.399 2.4 3.599 3.599 7.199 3.599 10.798v98.381c0 3.599-1.2 7.199-3.599 10.198-2.999 2.999-5.999 4.799-9.598 5.399l-80.984 12.598c-3.599 11.998-9.598 26.395-17.996 43.791 5.399 7.798 13.197 17.996 23.995 31.794 10.798 13.197 17.996 22.796 22.196 28.794 2.999 3.599 4.199 6.599 4.199 10.198 0 9.598-25.795 37.793-76.785 85.183-3.599 2.4-7.199 4.199-11.398 4.199s-7.798-1.2-10.798-3.599l-62.988-47.391c-14.397 7.199-27.595 12.598-39.592 16.197l-12.598 81.584c0 3.599-1.8 6.599-5.399 8.998-2.999 2.999-6.599 4.199-10.198 4.199h-99.581c-7.798 0-13.197-4.199-15.597-12.598-4.799-16.197-8.398-43.791-12.598-82.184-14.997-4.799-28.794-10.798-40.792-16.797l-61.788 47.991c-2.999 2.4-7.199 3.599-10.798 3.599-6.599 0-20.996-10.798-41.992-31.794-21.596-20.396-35.993-36.593-43.791-47.391-2.4-2.4-4.199-5.999-4.199-10.198 0-3.599 1.8-7.199 4.199-10.798 19.796-23.995 35.993-44.391 47.991-61.188-7.798-14.397-13.197-28.194-17.397-40.792l-82.784-12.598c-2.999 0-5.999-2.4-8.398-5.399-2.4-3.599-3.599-7.199-3.599-10.198v-98.981c0-3.599 1.2-7.199 3.599-10.198s5.399-4.799 8.998-4.799l80.984-13.197c4.799-13.197 10.798-27.595 19.196-43.192-5.999-8.398-14.397-19.196-25.195-32.994-11.398-13.797-18.596-22.796-22.196-28.194-2.4-3.599-3.599-6.599-3.599-10.198 0-9.598 25.795-37.793 76.785-85.183 3.599-2.4 7.199-4.199 11.398-4.199s7.798 1.2 10.798 4.199l62.388 47.391c14.997-7.798 28.194-13.197 40.192-16.797l12.598-81.584c0-3.599 1.8-6.599 4.799-8.998 3.599-2.999 7.199-4.199 10.798-4.199h99.581c7.798 0 13.197 4.199 15.597 12.598 4.199 16.797 8.398 44.391 12.598 82.784 13.797 4.199 27.595 9.598 40.792 16.197l61.188-47.391c3.599-2.999 7.199-4.199 11.398-4.199 6.599 0 20.996 10.798 41.992 31.794s35.393 37.193 43.791 47.991c2.4 2.4 3.599 5.399 3.599 9.598zM437.914 351.719c-26.995-26.395-58.789-39.592-96.581-39.592s-70.186 13.197-96.581 39.592c-26.395 26.995-40.192 58.789-40.192 96.581s13.797 69.586 40.192 96.581c26.395 26.395 58.789 39.592 96.581 39.592s69.586-13.197 96.581-39.592c26.395-26.995 39.592-58.789 39.592-96.581s-13.197-69.586-39.592-96.581zM867.431 672.656c-13.197-13.197-29.394-19.796-48.591-19.796-18.596 0-34.793 6.599-47.991 19.796s-19.796 29.394-19.796 48.591c0 17.996 6.599 34.193 19.796 47.391 13.797 13.797 29.994 20.396 47.991 20.396 18.596 0 34.793-6.599 47.991-20.396 13.797-13.197 20.396-29.394 20.396-47.391 0-19.196-6.599-35.393-19.796-48.591z" />
<glyph unicode="&#xe91e;" glyph-name="next" d="M513.5-10.61c-86.383 0-191.363 29.394-260.349 80.384-29.394 20.996-37.193 26.995-62.988 52.79-20.396 20.396-35.393 37.193-52.79 61.188-19.796 26.995-38.393 61.788-50.99 92.982l-14.397 41.992c-40.192 137.373-14.397 295.742 75.585 408.52 21.596 26.995 29.994 35.393 54.589 58.789 5.999 5.399 8.398 8.398 14.997 13.797 58.789 45.591 114.578 78.585 189.563 94.781 80.384 17.397 152.97 16.797 232.755-5.999 39.592-11.398 63.588-22.796 100.18-42.592 35.993-19.196 67.787-46.191 97.181-74.985 4.799-5.399 8.998-8.998 13.797-14.397 5.999-5.399 8.398-8.998 13.197-14.997 20.396-22.796 41.992-58.189 56.989-85.783 4.199-7.199 5.399-11.998 8.998-19.196 90.582-194.962 22.796-443.313-154.77-563.89-35.993-23.995-72.586-43.791-113.978-58.189-28.194-9.598-62.388-17.397-92.382-20.996-16.797-2.4-37.793-4.199-55.189-4.199zM401.921 613.268c0-16.197 25.195-35.393 34.793-44.991 15.597-16.197 113.378-111.578 118.777-119.977-5.399-8.398-119.377-121.176-138.573-139.773-7.199-6.599-14.997-13.197-14.997-25.195 0-13.197 10.798-26.995 26.395-26.995 17.996 0 37.193 25.195 53.989 41.392l119.377 119.377c7.798 7.798 17.996 15.597 19.196 29.394s-8.998 22.196-16.797 29.394l-142.772 143.372c-16.197 15.597-15.597 20.396-36.593 20.396-11.398 0-22.796-14.997-22.796-26.395zM0 466.896v-37.793c0-106.779 53.989-239.353 122.976-313.139l29.994-32.394c98.381-98.381 226.156-147.571 366.528-147.571 73.186 0 155.97 22.196 205.16 46.791 61.788 31.194 95.981 50.39 148.771 103.78 37.193 36.593 55.789 62.988 81.584 106.179 4.799 7.199 7.199 13.797 11.398 20.396 4.799 7.798 6.599 13.797 10.798 22.196 29.394 58.789 46.791 137.973 46.791 220.157 0 87.583-30.594 192.562-77.985 263.948-13.797 20.996-22.796 34.193-39.592 55.189-2.4 2.999-4.199 4.199-7.199 7.798-87.583 103.18-232.155 177.565-368.328 177.565h-37.793c-69.586 0-151.77-24.595-198.561-47.991-42.592-21.596-76.185-40.192-112.178-71.986l-32.994-29.394c-5.999-5.999-8.398-10.198-14.397-16.197-77.985-80.984-134.974-213.558-134.974-327.536z" />
<glyph unicode="&#xe91f;" glyph-name="notification" d="M515.899-20.209c-34.193 0-68.387 31.194-68.387 62.388h134.974c-0.6-9.598-3.599-15.597-7.199-23.395-3.599-5.999-9.598-14.997-13.797-19.196-5.399-4.799-12.598-9.598-19.196-12.598-5.399-2.4-19.196-7.199-26.395-7.199zM112.778 142.36c0 11.998 5.999 25.795 14.997 34.793 8.398 8.398 20.396 14.997 37.193 14.997h704.262c56.389 0 47.991-83.984 19.796-96.581-5.399-1.8-12.598-2.999-19.796-2.999h-700.063c-17.397 0-29.994 4.199-38.992 12.598-5.999 5.399-8.398 7.798-11.998 15.597-2.4 4.799-5.399 15.597-5.399 21.596zM515.899 815.428c129.575 0 221.357-78.585 260.349-169.767 25.195-57.589 22.196-110.978 22.196-191.963 0-35.993 0-71.986 0-107.979 0-26.995-4.199-85.183 4.199-103.78h-569.289c8.398 17.996 4.199 74.985 4.199 101.98 0 35.993 0 71.986 0 107.979 0 82.184-3.599 133.174 20.996 193.162 37.193 90.582 129.575 170.367 257.35 170.367zM461.91 863.419c0 69.586 99.581 68.987 99.581 0-8.998 0-7.798 2.4-18.596 2.4h-45.591c-14.997 0-20.996-2.4-35.393-2.4zM412.12 850.821c-6.599-2.999-14.997-5.999-22.196-8.998-113.378-44.391-202.76-163.168-202.161-290.343 0-86.983 0-174.566 0-261.549 0-60.588-17.996-41.992-47.991-49.79-43.192-11.398-76.785-49.19-76.785-89.383 0-32.394 4.799-55.789 28.194-79.784 12.598-12.598 38.992-28.794 62.988-28.794h241.153c0-13.797 7.199-34.193 11.998-44.391 17.996-35.993 58.789-67.787 100.18-67.787 40.792 0 62.388 7.199 91.182 35.993 18.596 17.996 35.393 50.39 35.993 76.185h247.152c43.791 0 79.185 44.991 79.185 89.383v20.996c0 37.793-23.395 68.987-49.19 81.584-26.395 13.197-38.393 3.599-52.19 12.598-14.397 9.598-10.798 32.394-10.798 55.789 0 49.79 2.4 226.756-0.6 261.549-8.398 104.979-65.987 193.762-145.772 247.152-23.395 15.597-59.388 34.793-90.582 41.992 0 29.994-0.6 52.79-22.796 77.385-41.992 47.391-112.178 47.391-154.77 0-22.196-25.195-22.196-48.591-22.196-79.784z" />
<glyph unicode="&#xe920;" glyph-name="ok" d="M521.298 12.185c-67.787 0-133.774 9.598-191.363 37.793-25.195 12.598-44.991 22.796-67.187 38.992-51.59 37.193-95.981 83.984-128.975 138.573-7.199 11.998-11.998 22.796-17.996 34.793-59.988 118.177-50.99 286.744 14.997 401.921 11.998 20.996 38.992 59.388 56.389 76.185 44.991 44.391 69.586 70.786 133.174 101.98 99.581 49.19 236.354 56.389 342.533 16.797 12.598-4.799 23.995-10.198 37.193-15.597l34.793-18.596c10.798-7.199 20.996-13.797 31.194-21.596 102.58-77.385 181.165-194.362 181.165-347.932 0-111.578-29.994-203.36-100.78-287.344-20.396-23.995-19.796-21.596-40.792-40.792-4.799-4.799-7.798-8.998-13.197-13.197-34.193-27.595-56.389-43.791-96.581-62.988-43.791-20.996-110.378-38.992-174.566-38.992zM426.517 353.518c-1.8 6.599-10.798 14.997-14.997 20.996l-46.791 61.188c-10.798 14.397-20.396 26.995-31.194 40.792-52.79 66.587-135.574-5.399-87.583-66.587l46.191-59.988c4.199-5.999 7.199-8.998 11.398-14.997l68.987-89.982c4.799-6.599 7.199-8.998 12.598-14.397 7.798-7.798 22.196-15.597 37.193-15.597 31.194 0 59.388 35.393 82.184 58.189l58.789 56.989c5.399 5.399 7.798 6.599 13.197 11.398 16.197 14.397 30.594 33.593 47.391 47.391s31.794 29.394 47.391 45.591c4.799 4.799 6.599 5.999 11.998 10.198 4.799 4.199 8.398 8.398 12.598 12.598l71.986 70.186c18.596 17.996 37.193 31.194 37.193 56.989 0 30.594-24.595 56.989-54.589 56.989s-41.992-21.596-58.189-36.593c-4.799-3.599-5.999-4.199-10.798-8.398-18.596-17.996-27.595-29.394-47.991-46.791l-37.793-37.793c-4.799-4.799-6.599-5.399-11.398-9.598-12.598-10.198-26.395-25.795-37.793-37.793l-97.781-93.582c-5.399-5.399-15.597-15.597-22.196-17.397zM0 466.896v-37.793c0-105.579 43.791-218.957 105.579-294.542 14.997-17.996 41.992-49.79 59.388-63.588l32.394-28.194c29.994-24.595 59.988-41.992 95.981-59.988 47.391-23.995 128.375-46.791 199.161-46.791 94.182 0 160.169 9.598 237.554 46.791 56.389 26.995 99.581 60.588 142.772 103.78 43.791 43.192 76.785 86.383 103.78 142.772 76.185 159.569 59.388 371.927-46.191 514.699-16.197 22.196-29.994 35.993-40.792 49.79-5.999 7.199-9.598 10.798-15.597 16.797-88.183 88.783-212.359 149.371-343.733 149.371h-37.793c-97.781 0-184.164-33.593-257.95-79.185l-35.993-26.395c-5.999-4.799-11.998-8.398-17.397-13.197-29.394-26.995-65.987-63.588-88.783-97.181-4.199-6.599-7.798-10.798-12.598-17.397-46.191-72.586-79.784-163.168-79.784-259.749z" />
<glyph unicode="&#xe921;" glyph-name="pdf" d="M321.537 150.158c-22.196 0-40.792 17.397-40.792 36.593 0 27.595 91.182 71.986 107.379 73.186-11.998-23.395-15.597-51.59-42.592-89.383-2.999-4.799-17.397-20.396-23.995-20.396zM862.632 347.52v0-282.545c1.2-39.592 2.999-75.585-22.796-101.98-13.197-13.197-28.794-26.995-53.989-26.995h-602.282c-39.592 0-77.385 39.592-77.385 79.185v861.432c0 47.391 38.992 83.384 89.383 83.384h462.51c6.599 0 97.181-94.182 103.78-100.78s100.78-97.181 100.78-103.78v-407.92zM806.243 64.975h-0.6v664.070h-173.966v173.966h-440.314c-16.197 0-28.194-11.998-28.194-23.995v-859.632c0-13.197 9.598-26.395 22.196-26.395h596.284c28.194 0 25.795 38.393 24.595 71.986zM613.080 351.119c7.798 1.8 85.183 32.394 85.183 4.199 0-27.595-14.997-80.984-62.388-34.193l-17.996 20.396c-5.999 7.199-3.599-0.6-4.799 9.598zM440.914 316.926c0.6 10.198 7.199 22.796 10.798 33.593 5.399 16.197 32.994 92.982 33.593 101.98 8.998-2.4 32.394-36.593 37.793-43.791 6.599-8.398 33.593-40.192 35.393-47.391l-117.577-44.391zM430.716 621.066c0 22.796 11.398 28.794 32.994 33.593 37.793 7.798 35.993-14.397 35.993-37.793 0-32.994-13.797-64.187-20.396-91.182-13.197 8.398-48.591 67.787-48.591 95.381zM394.123 628.865c0-37.193 7.199-54.589 26.395-86.983 5.999-10.198 11.998-20.396 19.196-29.994l23.395-26.995-36.593-107.379c-5.999-17.397-11.398-36.593-18.596-54.589-10.198-27.595 0-16.797-40.192-32.394-16.197-6.599-33.593-14.397-48.591-22.796-28.794-16.197-61.788-38.992-73.786-71.386-20.396-53.39 64.187-142.172 137.373-25.795 25.795 41.392 35.393 85.783 42.592 100.78 4.799 9.598 40.192 19.196 50.39 22.796 11.398 4.799 94.182 40.192 104.979 40.792 87.583-130.175 143.972-31.794 143.972 28.194 0 65.387-106.779 25.195-131.374 12.598l-81.584 107.379c-11.998 16.197-10.198 8.998-2.999 29.394 4.199 11.998 7.798 23.395 11.398 35.393 9.598 35.393 25.195 92.982 1.2 128.975-30.594 44.991-127.175 12.598-127.175-47.991z" />
<glyph unicode="&#xe922;" glyph-name="previous" d="M509.9-10.61c86.983 0 191.363 29.394 260.949 80.384 29.394 20.996 37.193 26.995 62.988 52.79 20.396 20.396 35.393 37.193 52.79 61.188 19.196 26.995 38.393 61.788 50.99 92.982l14.397 41.992c40.192 137.373 13.797 295.742-75.585 408.52-22.196 26.995-29.994 35.393-55.189 58.789-5.999 5.399-7.798 8.398-14.397 13.797-58.789 45.591-114.578 78.585-189.563 94.781-80.984 17.397-153.57 16.797-233.354-5.999-39.592-11.398-62.988-22.796-99.581-42.592-36.593-19.196-68.387-46.191-97.181-74.985-5.399-5.399-8.998-8.998-14.397-14.397s-7.798-8.998-13.197-14.997c-19.796-22.796-41.992-58.189-56.389-85.783-4.199-7.199-5.399-11.998-8.998-19.196-91.182-194.962-22.796-443.313 154.77-563.89 35.993-23.995 71.986-43.791 113.978-58.189 27.595-9.598 62.388-17.397 92.382-20.996 16.797-2.4 37.193-4.199 54.589-4.199zM622.079 613.268c0-16.197-25.195-35.393-34.793-44.991-15.597-16.197-113.378-111.578-118.777-119.977 5.399-8.398 119.377-121.176 138.573-139.773 6.599-6.599 14.997-13.197 14.997-25.195 0-13.197-11.398-26.995-26.995-26.995-17.996 0-36.593 25.195-53.39 41.392l-119.377 119.377c-7.798 7.798-18.596 15.597-19.196 29.394-1.2 13.797 8.998 22.196 16.197 29.394l143.372 143.372c15.597 15.597 15.597 20.396 36.593 20.396 11.398 0 22.796-14.997 22.796-26.395zM1024 466.896v-37.793c0-106.779-54.589-239.353-122.976-313.139l-30.594-32.394c-97.781-98.381-225.556-147.571-365.929-147.571-73.186 0-156.569 22.196-205.76 46.791-61.188 31.194-95.381 50.39-148.771 103.78-36.593 36.593-55.189 62.988-81.584 106.179-4.199 7.199-6.599 13.797-11.398 20.396-4.799 7.798-5.999 13.797-10.198 22.196-29.994 58.789-46.791 137.973-46.791 220.157 0 87.583 30.594 192.562 77.985 263.948 13.797 20.996 22.796 34.193 38.992 55.189 2.999 2.999 4.799 4.199 7.798 7.798 87.583 103.18 232.155 177.565 368.328 177.565h37.793c68.987 0 151.77-24.595 198.561-47.991 42.592-21.596 75.585-40.192 112.178-71.986l32.994-29.394c5.999-5.999 8.398-10.198 13.797-16.197 78.585-80.984 135.574-213.558 135.574-327.536z" />
<glyph unicode="&#xe923;" glyph-name="profile-icon" d="M511.7 724.246c-82.184 0-148.771-66.587-148.771-149.371 0-82.184 66.587-148.771 148.771-148.771s149.371 66.587 149.371 148.771c0 82.784-67.187 149.371-149.371 149.371zM511.7 960c-282.545 0-511.7-229.155-511.7-511.7 0-283.145 229.155-512.3 511.7-512.3 283.145 0 512.3 229.155 512.3 512.3 0 282.545-229.155 511.7-512.3 511.7zM511.7 906.011c253.151 0 458.31-205.16 458.31-457.711 0-253.151-205.16-458.31-458.31-458.31-252.551 0-457.711 205.16-457.711 458.31 0 252.551 205.16 457.711 457.711 457.711zM789.446 226.943c-1.8 56.989-14.397 140.373-60.588 175.166-19.796 14.397-44.991 19.196-67.787 28.194-10.798 4.199-20.996 8.398-29.994 13.197-31.194-34.193-71.986-51.59-119.377-51.59s-87.583 17.397-118.777 51.59c-9.598-4.799-19.196-8.998-29.994-13.197-22.796-8.998-48.591-13.797-67.787-28.194-46.191-34.793-58.789-118.177-60.588-175.166-1.2-25.795 11.398-29.394 32.994-36.593 26.395-9.598 53.989-16.797 81.584-22.796 52.79-11.398 107.979-19.796 162.568-20.396 55.189 0.6 109.779 8.998 163.168 20.396 27.595 5.999 55.189 13.197 81.584 22.796 21.596 7.199 33.593 10.798 32.994 36.593z" />
<glyph unicode="&#xe924;" glyph-name="reports" d="M233.954 748.241c0-50.99-2.4-229.755 1.2-266.948 1.2-13.797 10.198-24.595 20.996-24.595h516.499c20.996 0 29.394 34.193 9.598 47.991-10.798 7.199-73.186 3.599-88.783 3.599-124.776 0-248.951 0-373.127 0 4.799 7.199 32.994 35.393 40.792 41.992 4.799 4.199 6.599 4.799 11.398 9.598 3.599 3.599 6.599 6.599 10.198 10.198 7.199 7.199 14.397 16.197 22.196 21.596 6.599-1.8 43.192-26.395 51.59-31.794l52.19-32.394 30.594 44.991c22.796 34.193 53.989 76.185 78.585 111.578 2.999 4.199 4.799 7.199 7.798 11.398 2.999 3.599 5.399 5.999 7.199 11.398 28.194 0 56.389 0 84.583 0 11.998 0 30.594-0.6 39.592 1.8 30.594 8.998 21.596 52.19-5.399 52.19h-143.372c-5.399 0-25.795-34.793-29.394-39.592-22.196-29.394-48.591-70.786-71.386-101.38-3.599-5.399-10.798-17.397-14.397-19.796-8.998 2.4-85.783 56.389-95.381 58.789l-110.378-105.579v190.163c0 24.595 0 41.392-29.394 41.392-17.397 0-23.995-18.596-23.995-36.593zM197.961 886.814c0-21.596-3.599-32.994 4.799-32.994h485.305v37.793h-485.305c-3.599 0-4.799-1.2-4.799-4.799zM197.961 363.716v-19.196h641.875c0 16.797 2.4 23.995-5.399 23.995h-631.677c-3.599 0-4.799-1.2-4.799-4.799zM197.961 280.933c0-13.797-2.4-19.196 4.799-19.196h637.076v23.995h-637.076c-3.599 0-4.799-1.2-4.799-4.799zM197.961 199.349c0-13.197-2.4-18.596 4.799-18.596h637.076v23.995h-637.076c-3.599 0-4.799-1.2-4.799-5.399zM197.961 99.168h641.875v22.796h-641.875zM97.781 965.999v-1035.998h828.438v1035.998h-828.438zM127.175 934.805h769.65v-942.416h-769.65v942.416z" />
<glyph unicode="&#xe925;" glyph-name="reset-password" d="M473.308 404.508c7.798-1.8 20.996-11.398 28.794-14.997 10.198-5.399 18.596-10.798 28.194-16.197v64.187h34.793v-64.187c9.598 5.399 17.996 10.198 27.595 16.197 6.599 3.599 22.796 13.797 28.794 14.997 1.8-7.199 12.598-21.596 16.797-29.394-9.598-4.799-50.99-26.395-55.189-32.994 17.996-8.998 34.793-19.196 53.39-28.794-0.6-7.798-3.599-9.598-7.199-15.597-2.999-5.999-5.999-9.598-7.798-15.597-4.199 1.2-10.198 4.799-14.397 7.199-7.798 4.799-37.193 22.196-43.791 23.995v-64.187h-32.994v64.187c-7.798-1.8-46.191-25.795-56.989-31.194-2.4 10.198-13.797 20.396-16.197 31.194 9.598 1.8 44.991 26.395 54.589 28.794-3.599 5.399-46.191 28.794-54.589 32.994 5.399 10.198 10.798 19.196 16.197 29.394zM506.301 916.808c0-11.998 3.599-24.595 3.599-36.593 50.99 11.398 147.571-5.999 196.762-24.595 50.99-19.796 101.38-50.99 141.572-87.583 85.183-79.185 139.173-197.361 139.173-317.938 0-116.377-44.991-224.956-124.776-304.74-46.791-46.791-98.981-82.184-161.968-104.979-119.977-43.192-251.951-31.194-362.929 30.594-25.795 14.397-40.792 26.995-62.388 43.791l-28.194 25.195c-5.399 5.399-7.199 7.798-11.998 13.797-4.799 5.399-8.398 7.798-13.197 13.797-31.194 39.592-38.992 50.39-62.388 96.581-64.187 128.375-51.59 301.141 27.595 419.318 8.998 13.797 31.794 46.191 43.192 53.989 10.198-44.391 27.595-101.98 39.592-148.771 4.199-17.996 9.598-34.193 13.197-50.39 11.398 0 25.195 4.799 34.793 7.199l-58.189 219.557c-1.8 7.798-7.199 25.795-7.798 32.394-20.996-4.799-41.392-10.798-61.788-16.197-21.596-5.399-41.992-10.798-63.588-16.797l-126.575-34.193c2.999-5.999 7.199-26.995 8.998-34.793 55.789 12.598 119.977 32.394 175.766 45.591-6.599-9.598-13.797-17.996-20.396-27.595-73.186-110.978-101.98-244.152-68.987-376.127l13.197-43.791c2.999-8.398 4.799-13.197 7.798-20.996l50.99-93.582c4.199-5.999 7.798-10.798 11.998-15.597 4.199-5.999 8.398-10.798 12.598-16.197 5.399-7.199 8.398-9.598 14.397-15.597 2.999-3.599 2.999-4.199 5.999-8.398l22.196-19.796c64.187-56.989 121.776-90.582 206.36-111.578 164.968-41.392 329.336 9.598 447.513 127.775 19.196 19.796 36.593 39.592 52.19 62.988 53.39 80.984 83.384 166.767 83.384 267.548 0 83.384-23.395 163.168-59.388 226.156-19.196 34.793-45.591 71.986-73.786 100.18l-20.996 20.996c-41.392 34.193-62.388 49.79-112.778 74.985-43.791 22.196-119.377 46.191-184.764 46.191-28.794 0-37.793 0.6-65.987-1.8zM449.912 559.878c0 67.187 98.381 131.374 172.166 66.587 38.393-34.193 32.394-72.586 32.394-117.577h-204.56v50.99zM383.925 559.878v-50.99h-36.593v-331.135h409.72v331.135h-36.593v50.99c0 80.984-78.585 158.969-158.969 158.969h-18.596c-80.984 0-158.969-77.985-158.969-158.969z" />
<glyph unicode="&#xe926;" glyph-name="search" d="M136.773 550.28c0 19.196 3.599 44.391 7.199 61.188 16.797 79.185 79.185 156.569 153.57 187.163 16.197 6.599 32.394 13.797 50.99 17.397 83.384 17.397 174.566-1.8 235.754-56.989 48.591-43.791 73.186-80.984 90.582-148.171 19.796-79.185-2.999-174.566-56.389-235.154-43.791-48.591-80.984-73.186-148.171-90.582-89.383-22.796-190.163 8.998-253.75 72.586-6.599 6.599-9.598 11.398-15.597 17.996-39.592 43.791-64.187 114.578-64.187 174.566zM0 568.876c0-74.985 7.199-129.575 38.393-193.762l36.593-61.188c40.792-57.589 95.981-103.18 159.569-134.374 118.177-58.189 277.146-50.99 388.124 20.996 4.799 2.999 6.599 4.199 11.398 7.199 6.599 3.599 7.199 4.799 11.998 8.398 10.798-7.199 229.155-227.955 255.55-254.35 21.596-22.196 28.794-25.795 60.588-25.795 29.394 0 61.788 32.394 61.788 61.788 0 46.791-18.596 53.39-62.388 97.181-17.996 18.596-210.559 208.759-217.757 218.957 3.599 4.799 4.199 4.799 7.798 10.798 2.999 4.799 3.599 5.999 6.599 10.798 33.593 50.99 60.588 133.774 60.588 196.762 0 74.985-7.199 129.575-38.393 193.162l-36.593 61.788c-68.987 97.781-193.762 172.766-316.138 172.766-75.585 0-129.575-7.199-193.162-38.393-87.583-43.192-152.97-108.579-196.162-196.162-17.996-35.993-38.393-102.58-38.393-156.569z" />
<glyph unicode="&#xe927;" glyph-name="send" d="M0 538.282c142.772-58.789 284.944-118.177 427.117-177.565l175.166-424.717 421.118 1024-1023.4-421.718zM120.576 538.282l764.251 314.938-445.113-447.513-319.138 132.574zM916.021 819.627l-313.739-762.451-130.175 316.138 443.913 446.313z" />
<glyph unicode="&#xe928;" glyph-name="setting" d="M970.61 562.278h-49.79c-8.998 34.193-22.796 67.187-39.592 97.781l34.793 35.393c19.196 19.196 19.196 50.99 0 70.186l-90.582 91.182c-19.196 19.196-50.99 19.196-70.186 0l-35.393-35.393c-30.594 16.797-62.388 30.594-97.181 39.592v49.19c0.6 26.995-21.596 49.79-49.19 49.79h-126.575c-28.794 0-50.39-22.796-50.39-49.79v-50.39c-33.593-8.998-66.587-22.796-97.181-39.592l-35.393 35.393c-19.196 19.196-50.99 19.196-70.186 0l-90.582-91.182c-19.196-19.196-19.196-50.99 0-70.186l35.393-35.393c-17.397-30.594-30.594-62.388-40.192-97.781h-48.591c-28.194 1.2-49.79-21.596-49.79-48.591v-128.375c0-26.395 21.596-49.19 49.79-49.19h49.79c8.998-34.193 22.796-67.187 39.592-97.781l-34.793-34.793c-19.196-19.796-19.196-51.59 0-70.786l90.582-90.582c19.196-19.796 50.99-19.796 70.186 0l35.393 34.793c30.594-16.797 62.388-30.594 97.181-39.592v-49.79c0-27.595 22.796-50.39 50.39-50.39h127.775c26.995 0 49.79 22.796 49.79 50.39v49.79c34.193 8.998 67.187 22.796 97.781 39.592l34.793-34.793c19.796-19.796 50.99-19.796 70.786 0l90.582 90.582c19.196 19.196 19.196 50.99 0 70.786l-35.393 34.793c17.397 30.594 30.594 62.388 39.592 97.781h50.39c26.995 0 49.79 22.796 49.79 50.39v127.175c-3.599 26.995-26.395 49.79-53.39 49.79zM509.9 221.544c-124.176 0-226.756 101.98-226.756 227.356 0 124.776 102.58 226.756 226.756 226.756 124.776 0 226.756-101.98 226.756-226.756 0-125.376-101.98-227.356-226.756-227.356z" />
<glyph unicode="&#xe929;" glyph-name="share" d="M575.888 806.43c0-18.596 1.2-43.192 8.398-58.789l-25.795-19.796c-8.998-7.199-16.797-13.797-25.795-20.996l-13.197-10.798c-4.199-3.599-8.398-6.599-12.598-10.198l-130.175-104.38c-11.998 7.798-21.596 12.598-35.393 17.996-56.989 21.596-124.776 3.599-166.767-37.793-13.197-13.797-22.196-26.995-31.194-44.391-29.394-59.388-16.197-134.974 31.194-182.364 13.797-13.197 26.995-22.196 44.391-31.194 25.195-12.598 46.191-15.597 75.585-15.597 32.994 0 64.187 14.397 83.984 27.595 2.4-2.4 8.998-7.199 12.598-9.598 4.799-3.599 8.398-7.199 13.197-10.798 32.394-23.995 70.786-56.989 103.18-80.984l37.793-29.994c4.799-3.599 8.998-6.599 13.197-10.198l19.796-15.597c2.4-1.8 4.199-3.599 7.199-4.799-1.2-11.398-9.598-15.597-9.598-63.588 0-58.789 38.393-112.178 89.982-137.973 60.588-30.594 136.173-15.597 182.964 31.194 13.197 13.197 22.796 26.395 31.794 43.791 29.394 59.388 15.597 134.974-31.794 182.364-25.195 25.195-66.587 46.791-104.38 46.791-23.995 0-40.192-0.6-62.388-8.998-14.997-5.399-25.195-10.798-37.193-18.596l-50.99 40.192c-44.991 34.793-98.381 79.784-142.172 111.578-4.199 3.599-10.198 8.998-13.197 10.198 0.6 10.198 17.397 41.992 5.999 92.382-1.2 4.799-1.8 7.199-2.999 11.998-1.2 3.599-3.599 7.798-4.199 11.998 4.799 2.4 8.398 5.999 12.598 9.598l76.185 61.188c4.799 3.599 8.998 6.599 13.197 10.198 16.197 14.397 56.989 45.591 76.185 61.188 4.799 3.599 8.398 6.599 13.197 10.798 4.199 3.599 8.398 7.199 13.197 9.598 35.993-23.395 59.388-29.394 102.58-29.394 37.793 0 79.185 20.996 104.38 46.191s46.791 66.587 46.791 104.979c0 29.994-1.8 50.99-14.997 77.385-17.397 34.793-41.392 58.189-76.185 75.585-40.792 20.996-96.581 20.996-137.373 0-52.19-25.795-91.182-79.185-91.182-137.973z" />
<glyph unicode="&#xe92a;" glyph-name="unlock-account" d="M300.541 432.103c-66.587-15.597-147.571-67.187-196.762-118.177-4.799-5.399-5.399-7.199-9.598-12.598-13.797-14.997-25.795-30.594-35.993-47.991-11.398-18.596-19.796-36.593-28.194-57.589-36.593-90.582-29.394-162.568-29.394-259.749h646.074v31.194h-614.88c0 78.585-1.8 140.373 25.195 210.559 16.197 42.592 41.992 84.583 71.386 113.978 16.797 16.797 29.394 28.794 48.591 43.192 46.191 34.793 100.78 58.189 157.769 74.385 14.397 4.199 28.794 4.799 34.193 11.998-8.998 2.4-42.592 32.394-49.19 38.992-15.597 15.597-28.194 30.594-40.192 50.39-47.391 78.585-54.589 171.566-16.197 256.75 51.59 115.178 180.565 181.764 309.54 152.97 203.96-44.991 286.744-305.94 133.774-457.711-8.998-8.998-14.997-13.797-23.995-22.196l-26.995-23.995c19.196 0 77.985-20.396 95.381-27.595 14.997-6.599 27.595-12.598 41.992-19.796l40.792-22.796c4.799 7.199 13.797 17.996 15.597 26.395-30.594 20.396-88.183 50.99-125.376 59.388 6.599 10.198 17.397 19.796 25.195 29.394 133.774 171.566 60.588 403.721-126.575 477.507-154.77 61.188-328.736-17.397-393.523-169.167-22.796-53.989-29.394-128.975-12.598-192.562 14.397-57.589 36.593-87.583 70.786-130.175 4.799-5.999 8.998-8.398 13.197-14.997zM739.056 160.956h253.75v-193.762h-253.75v193.762zM776.848 192.15c-20.996 0-68.387 7.199-68.387-26.995v-202.76c0-13.197 13.197-26.395 26.395-26.395h262.149c13.197 0 26.395 13.197 26.395 26.395v202.76c0 13.797-13.197 26.995-26.395 26.995h-187.163c0.6 33.593 37.193 67.787 72.586 67.787s37.793-4.199 64.187-21.596l22.196 21.596c-8.998 5.999-15.597 15.597-32.394 22.796-82.184 35.993-158.369-28.194-159.569-90.582z" />
<glyph unicode="&#xe92b;" glyph-name="view" d="M502.702 756.040c119.977 0 217.757-53.39 286.744-108.579 35.993-28.194 70.186-58.789 101.38-92.382 4.799-4.799 5.999-7.798 10.798-12.598l77.985-93.582c-3.599-5.999-5.999-8.398-10.198-13.797s-6.599-8.398-10.798-13.797c-25.195-30.594-38.393-48.591-67.187-77.985l-48.591-48.591c-68.387-65.987-152.37-119.977-245.352-143.372-13.197-3.599-26.395-6.599-39.592-7.798l-90.582-1.2c-70.786 10.198-119.377 27.595-179.965 63.588-16.797 10.198-67.187 44.991-84.583 61.188-4.799 4.199-7.798 6.599-12.598 10.798-34.793 32.394-64.787 61.788-94.781 98.981-4.199 4.799-7.199 8.998-11.398 14.397l-41.392 55.789c20.996 31.194 37.193 53.39 61.188 82.184 20.996 24.595 57.589 65.387 82.184 85.183 14.997 11.398 32.394 29.394 53.989 43.791 58.189 39.592 102.58 68.387 176.366 86.383 24.595 5.999 56.989 11.398 86.383 11.398zM506.301 309.127c-79.784 0-141.572 64.787-141.572 134.374 0 46.791 13.797 76.785 41.992 104.979 55.189 55.789 145.772 50.39 195.562 0l16.197-19.196c35.993-53.39 32.994-125.376-5.999-168.567-8.998-10.198-13.197-16.197-26.995-25.795-22.796-15.597-49.19-25.795-79.185-25.795zM491.904 288.731c46.791 0 65.987 2.999 104.979 28.794 60.588 40.192 84.583 122.976 53.989 196.762-3.599 9.598-14.397 27.595-21.596 35.393-17.397 19.796-27.595 29.994-53.989 43.192-62.388 31.194-136.173 17.397-186.564-32.394-30.594-29.994-42.592-66.587-46.191-110.378-2.4-32.994 19.196-85.783 43.791-110.378 15.597-15.597 23.395-22.196 43.791-33.593 14.397-7.798 40.192-17.397 61.788-17.397zM509.9 259.337c-62.388 0-104.979 19.196-140.972 55.189-65.387 65.387-74.985 167.367-21.596 243.552 19.196 27.595 46.191 51.59 77.385 64.787 64.187 26.995 129.575 22.796 185.964-16.197 17.996-11.998 35.993-29.994 48.591-47.391 5.999-8.398 12.598-19.796 17.397-30.594 21.596-52.19 24.595-102.58 1.2-155.97-8.398-19.796-23.395-41.992-37.793-55.789-28.194-28.194-74.385-57.589-130.175-57.589zM272.347 461.497c0-43.791 2.4-71.386 21.596-110.978 12.598-25.795 26.395-44.391 44.991-63.588l6.599-5.999c37.793-35.393 88.783-62.388 143.972-62.388 64.787 0 97.181 7.798 149.371 42.592 22.196 14.997 51.59 47.991 65.387 72.586 35.993 66.587 42.592 146.371 8.398 214.758-37.793 74.985-110.378 132.574-202.76 132.574-49.79 0-81.584-8.398-121.776-31.194-6.599-2.999-10.798-6.599-16.797-10.798-20.996-13.797-41.392-34.793-55.789-54.589-4.199-5.399-7.199-10.198-10.798-16.797-17.397-28.794-32.394-67.187-32.394-106.179zM0 452.499c0-20.396 4.199-19.796 18.596-41.992 7.798-10.798 14.397-20.396 22.196-31.194 14.997-19.796 41.992-52.79 59.988-70.786 11.998-11.998 19.796-23.995 38.992-40.792l28.194-25.195c4.799-3.599 8.398-7.199 13.797-11.398 35.993-29.394 52.79-41.392 92.982-65.387l52.19-26.995c109.179-52.79 251.951-52.19 359.33-0.6 19.196 9.598 33.593 14.997 52.19 26.395 26.995 16.197 56.389 34.793 80.384 54.589 10.198 8.398 18.596 16.197 29.394 23.995l54.589 52.19c20.396 20.996 44.991 46.191 62.988 69.586 4.799 5.999 7.798 8.998 12.598 14.997 5.999 7.798 45.591 55.789 45.591 61.788 0 18.596 0.6 14.397-8.998 27.595l-58.189 72.586c-8.398 10.198-16.797 18.596-24.595 28.794l-65.387 65.387c-26.395 26.395-74.385 60.588-104.979 80.984-59.388 40.192-157.769 79.784-236.954 79.784-86.383 0-121.176-8.398-199.161-40.192-26.995-11.398-74.985-38.992-99.581-56.989l-58.789-46.191c-16.197-12.598-64.187-61.788-79.185-79.185l-47.391-57.589c-7.199-9.598-40.792-53.39-40.792-64.187z" />
<glyph unicode="&#xe92c;" glyph-name="view-access-analysis" d="M820.040 498.69v-532.696c0-15.597 14.397-29.994 30.594-29.994h108.579c16.197 0 30.594 14.397 30.594 29.994v532.696c0 15.597-14.397 29.994-30.594 29.994h-108.579c-16.197 0-30.594-14.397-30.594-29.994zM296.342 441.101v-475.107c0-15.597 13.797-29.994 29.994-29.994h109.179c16.197 0 29.994 14.397 29.994 29.994v475.107c0 17.397-17.397 29.994-35.393 29.994h-98.381c-18.596 0-35.393-12.598-35.393-29.994zM558.491 402.709v-436.715c0-15.597 13.797-29.994 29.994-29.994h109.179c15.597 0 29.994 14.397 29.994 29.994v436.715c0 16.197-14.397 29.994-29.994 29.994h-109.179c-16.197 0-29.994-13.797-29.994-29.994zM760.052 927.006c0-34.793 37.793-35.393 59.988-35.393-5.399-8.398-157.169-135.574-179.965-152.97-7.798-5.399-2.4-4.799-13.197-5.399-10.198-0.6-215.958 29.994-248.951 29.994-14.397 0-48.591-33.593-60.588-45.591l-164.968-154.77c-13.197-10.798-22.796-24.595-35.993-34.793-17.996-14.397-29.994-21.596-29.994-46.191 0-19.196 27.595-50.39 65.987-11.398 4.199 4.799 7.798 8.398 11.998 11.998l38.393 35.993c9.598 9.598 17.397 14.397 27.595 24.595 16.797 17.397 32.994 29.994 50.39 47.391l101.98 97.181c13.797 12.598 54.589 2.4 84.583-1.8 29.994-3.599 155.37-20.996 178.165-20.996 16.197 0 44.391 28.194 56.989 38.992l161.368 133.174c0-17.996-9.598-38.393 7.798-55.789 14.397-14.397 38.393-13.797 51.59 7.798 7.798 12.598 14.397 112.778 14.397 132.574 0 29.994-44.391 28.794-59.388 30.594-36.593 3.599-90.582 16.797-107.979-2.4-4.199-4.799-10.198-16.197-10.198-22.796zM34.193 268.935v-302.941c0-15.597 14.397-29.994 29.994-29.994h109.179c16.197 0 29.994 14.397 29.994 29.994v302.941c0 15.597-17.996 29.994-32.394 29.994h-103.78c-14.997 0-32.994-14.397-32.994-29.994z" />
<glyph unicode="&#xe92d;" glyph-name="view-actions" d="M-5.999 897.012v-346.132h343.733v346.132h-343.733zM59.388 831.025h212.958v-214.158h-212.958v214.158zM-5.999 345.12v-346.132h343.733v346.132h-343.733zM59.388 279.733h212.958v-214.758h-212.958v214.758zM407.92 897.012h622.079v-65.987h-622.079v65.987zM407.92 730.245h622.079v-65.987h-622.079v65.987zM407.92 564.077h622.079v-65.987h-622.079v65.987zM407.92 397.91h622.079v-65.987h-622.079v65.987zM407.92 64.975h622.079v-65.987h-622.079v65.987zM407.92 231.142h622.079v-65.987h-622.079v65.987z" />
<glyph unicode="&#xe92e;" glyph-name="view-history" d="M184.764 775.236h70.186c0-8.998-1.2-35.393 15.597-35.393h482.906c4.199 0 8.998 5.399 11.398 8.398 4.799 7.798 4.199 17.397 4.199 26.995h69.586v-800.244h-653.872v800.244zM293.943 817.828c0 8.998 8.398 20.396 14.397 24.595 9.598 6.599 17.397 6.599 32.394 6.599h118.777c21.596-0.6 17.397-0.6 17.397 21.596 0 15.597-1.8 23.395 4.799 34.193 13.197 22.196 46.791 21.596 59.988 1.2 7.199-11.398 5.399-16.797 5.399-33.593-0.6-28.194-11.398-23.395 56.389-23.395 22.196 0 94.182 4.199 110.978-5.999 20.396-12.598 15.597-38.992 15.597-65.987h-436.115v40.792zM437.914 886.214h-112.778c-33.593 0-64.187-30.594-67.787-59.388-1.2-9.598 2.4-10.798-5.999-12.598-29.994-6.599-105.579 19.796-105.579-40.792v-796.644c0-24.595 16.197-40.792 40.792-40.792h650.273c24.595 0 40.792 16.197 40.792 40.792v796.644c0 60.588-75.585 34.193-104.979 40.792-14.397 2.999 3.599 18.596-23.995 47.991-10.798 11.998-28.194 23.995-49.79 23.995h-112.778c0 39.592-34.193 73.786-74.385 73.786-39.592 0-73.786-34.193-73.786-73.786zM437.914 467.496c0-9.598 7.199-19.196 17.397-19.196h259.149c22.796 0 23.995 36.593-1.8 36.593h-255.55c-9.598 0-19.196-8.398-19.196-17.397zM437.914 138.76c0-10.798 8.398-19.796 19.196-19.796h255.55c25.195 0 24.595 37.193 1.8 37.193h-259.149c-9.598 0-17.397-9.598-17.397-17.397zM511.7 251.538c0-12.598 3.599-23.395 19.796-23.395h176.965c29.994 0 32.394 38.992-1.8 38.992h-171.566c-11.998 0-23.395-7.199-23.395-15.597zM346.732 496.89c-16.197 4.199-17.397 25.195-37.193 25.195-7.199 0-17.397-10.798-17.397-17.397 0-14.397 14.997-23.995 22.796-31.794 40.792-40.792 37.193-33.593 82.784 34.793 5.999 8.998 41.992 60.588 41.992 67.187 0 15.597-10.798 19.196-23.395 19.196-10.198 0-31.194-37.193-37.193-46.191s-10.198-15.597-16.197-24.595c-4.799-6.599-14.397-19.796-16.197-26.395zM346.732 167.555c-14.397 4.199-18.596 25.795-35.393 25.795-9.598 0-19.196-8.398-19.196-17.996 0-12.598 14.997-23.995 22.796-31.194 43.791-43.791 35.993-35.393 104.38 67.787 4.799 7.199 20.396 27.595 20.396 35.393 0 14.397-16.797 23.395-28.794 16.197-5.999-3.599-37.193-52.79-43.192-62.388-4.799-7.199-19.196-26.395-20.996-33.593zM511.7 576.675c0-11.398 7.199-19.796 17.996-19.796h182.964c25.195 0 24.595 37.193 1.8 37.193h-184.764c-10.198 0-17.996-7.798-17.996-17.397z" />
<glyph unicode="&#xe92f;" glyph-name="view-more" d="M623.278 91.97c0-38.992-25.195-83.984-66.587-100.78-29.394-11.998-47.991-12.598-78.585-3.599-104.38 29.994-99.581 188.963 8.398 211.759 44.991 9.598 90.582-6.599 115.178-43.192 11.398-17.397 21.596-44.391 21.596-64.187zM623.278 448.3c0-67.187-63.588-128.375-145.172-104.38-30.594 8.398-53.989 29.994-67.187 58.789-55.789 122.376 119.377 216.558 190.763 109.179 7.798-11.398 9.598-13.797 13.797-26.995 2.4-7.199 7.798-29.394 7.798-36.593zM356.33 459.098v-22.196c0-73.186 71.386-144.572 144.572-144.572h22.196c73.186 0 144.572 71.386 144.572 144.572v22.196c0 73.186-71.386 144.572-144.572 144.572h-22.196c-73.186 0-144.572-71.386-144.572-144.572zM623.278 804.030c0-83.384-94.781-142.172-173.366-91.182-18.596 11.998-29.394 25.195-38.992 46.191-8.398 19.196-11.398 43.192-6.599 67.787 7.798 42.592 40.192 75.585 82.184 84.583 25.195 5.399 50.99 2.4 70.786-6.599 40.192-17.996 65.987-60.588 65.987-100.78zM356.33 815.428v-22.196c0-73.786 71.386-144.572 144.572-144.572h22.196c73.186 0 144.572 70.786 144.572 144.572v22.196c0 73.186-71.386 144.572-144.572 144.572h-22.196c-73.186 0-144.572-71.386-144.572-144.572zM356.33 103.367v-22.796c0-73.186 71.386-144.572 144.572-144.572h22.196c73.186 0 144.572 71.386 144.572 144.572v22.796c0 73.186-71.386 144.572-144.572 144.572h-22.196c-73.186 0-144.572-71.386-144.572-144.572z" />
</font>
</defs>
</svg>
